<?xml version="1.0" encoding="UTF-8"?>
<svg version="1.1" xmlns="http://www.w3.org/2000/svg" width="256" height="256">
<path d="M0 0 C10.15783155 -0.29238961 19.63096169 -0.32853392 29.55859375 2.15625 C32.61348299 2.90523533 35.65229705 3.47031898 38.75463867 3.97949219 C45.65988547 5.13191561 52.22907759 6.8571654 58.875 9.0625 C59.65456055 9.3200708 60.43412109 9.5776416 61.23730469 9.84301758 C66.73557294 11.73557294 66.73557294 11.73557294 69 14 C68.67 14.99 68.34 15.98 68 17 C67.01 16.01 67.01 16.01 66 15 C64.68 15 63.36 15 62 15 C62 15.99 62 16.98 62 18 C62.969375 18.4125 63.93875 18.825 64.9375 19.25 C68 21 68 21 68.875 23.1875 C68.91625 23.785625 68.9575 24.38375 69 25 C68.01 24.34 67.02 23.68 66 23 C64.68 23 63.36 23 62 23 C60.01637931 25.91708924 60.0123809 27.12380904 60.375 30.75 C60.684375 32.35875 60.684375 32.35875 61 34 C62.41655793 34.0272415 63.83327045 34.04650467 65.25 34.0625 C66.43335937 34.07990234 66.43335937 34.07990234 67.640625 34.09765625 C69.90691002 34.00385306 71.8288895 33.63241063 74 33 C77.29677083 36.75149784 79.15056722 40.37641805 81 45 C81.65288627 46.34013497 82.31225595 47.67741528 83 49 C81 51 81 51 78.1875 51.375 C74.27000366 50.91411808 72.96432747 49.51967835 70 47 C68.01643517 46.28591666 66.01684563 45.61382258 64 45 C62.515 44.01 62.515 44.01 61 43 C61.0825 43.9075 61.165 44.815 61.25 45.75 C61 49 61 49 59 51.3125 C58.01 52.1478125 58.01 52.1478125 57 53 C57 53.33 57 53.66 57 54 C59.64 54.66 62.28 55.32 65 56 C65 57.65 65 59.3 65 61 C58.25 60.125 58.25 60.125 56 59 C54.515 58.8453125 54.515 58.8453125 53 58.6875 C50 58 50 58 48.625 55.9375 C48.315625 54.9784375 48.315625 54.9784375 48 54 C46.02 54.495 46.02 54.495 44 55 C44.05800781 55.59167969 44.11601563 56.18335938 44.17578125 56.79296875 C44.42023005 61.07431492 44.40732734 63.35616002 42.0625 67.0625 C37.9247295 69.68027318 34.77425703 69.92220691 30 69 C27.45083893 67.87721261 25.34713659 66.53282389 23 65 C20.75637427 64.7715451 20.75637427 64.7715451 18.875 67 C17.946875 67.99 17.946875 67.99 17 69 C16.34 67.35 15.68 65.7 15 64 C13.97132812 64.51626953 13.97132812 64.51626953 12.921875 65.04296875 C5.65732623 67.42239983 -4.15161033 64.48421805 -11.22265625 61.9296875 C-13.9220234 60.51771084 -15.41541909 58.54910842 -17 56 C-14 56 -14 56 -11.26953125 56.9765625 C-3.88823406 59.28707608 5.0673554 59.29476537 12.1875 56.125 C13.47166164 55.44112694 14.74376832 54.73391787 16 54 C16.69609375 53.71898437 17.3921875 53.43796875 18.109375 53.1484375 C20.60777046 51.63081712 21.04733086 50.20711769 22.0625 47.5 C23.39904592 43.96647088 23.71308882 43.19127412 27 41 C29.26171875 41.0234375 29.26171875 41.0234375 31.6875 41.375 C32.49574219 41.48585937 33.30398437 41.59671875 34.13671875 41.7109375 C35.05904297 41.85402344 35.05904297 41.85402344 36 42 C36.6878236 39.64632287 36.6878236 39.64632287 37 37 C34.59563974 33.39345961 33.05320393 33.14547068 29 32 C29.2475 31.0925 29.495 30.185 29.75 29.25 C30.31679192 26.00343537 30.31679192 26.00343537 28.5625 23.625 C24.87877417 21.28897874 22.31376798 21.71241547 18 22 C17.65388672 21.06027344 17.65388672 21.06027344 17.30078125 20.1015625 C15.46841014 15.13480655 15.46841014 15.13480655 11.8125 11.5625 C10.884375 11.376875 9.95625 11.19125 9 11 C8.23429687 10.82082031 7.46859375 10.64164063 6.6796875 10.45703125 C4.45865792 9.93832685 2.23428979 9.45756697 0 9 C0 8.67 0 8.34 0 8 C5.28 8 10.56 8 16 8 C12.58012389 3.44016519 11.65269278 3.30746392 6.3125 2.25 C5.13300781 2.00765625 3.95351563 1.7653125 2.73828125 1.515625 C1.83464844 1.34546875 0.93101563 1.1753125 0 1 C0 0.67 0 0.34 0 0 Z " fill="#9B0000" transform="translate(33,25)"/>
<path d="M0 0 C0.99 0.66 1.98 1.32 3 2 C2.67 3.32 2.34 4.64 2 6 C1.236875 5.814375 0.47375 5.62875 -0.3125 5.4375 C-3.08967375 4.77180827 -3.08967375 4.77180827 -6 6 C-6.33 6.66 -6.66 7.32 -7 8 C-3.37 9.32 0.26 10.64 4 12 C4 12.66 4 13.32 4 14 C8.02992782 13.44687265 12.02022924 12.8441938 16 12 C19.29677083 15.75149784 21.15056722 19.37641805 23 24 C23.65288627 25.34013497 24.31225595 26.67741528 25 28 C23 30 23 30 20.1875 30.375 C16.27000366 29.91411808 14.96432747 28.51967835 12 26 C10.01643517 25.28591666 8.01684563 24.61382258 6 24 C5.01 23.34 4.02 22.68 3 22 C3.0825 22.9075 3.165 23.815 3.25 24.75 C3 28 3 28 1 30.3125 C0.01 31.1478125 0.01 31.1478125 -1 32 C-1 32.33 -1 32.66 -1 33 C1.64 33.66 4.28 34.32 7 35 C7 36.65 7 38.3 7 40 C0.25 39.125 0.25 39.125 -2 38 C-3.485 37.8453125 -3.485 37.8453125 -5 37.6875 C-8 37 -8 37 -9.375 34.9375 C-9.684375 33.9784375 -9.684375 33.9784375 -10 33 C-11.32 33 -12.64 33 -14 33 C-13.91298828 33.99580078 -13.91298828 33.99580078 -13.82421875 35.01171875 C-13.59317979 39.53348124 -13.50422477 42.20036254 -15.9375 46.125 C-20.08242407 48.66270861 -23.25685092 48.91619803 -28 48 C-30.54916107 46.87721261 -32.65286341 45.53282389 -35 44 C-37.24362573 43.7715451 -37.24362573 43.7715451 -39.125 46 C-39.74375 46.66 -40.3625 47.32 -41 48 C-41.66 46.35 -42.32 44.7 -43 43 C-43.68578125 43.34417969 -44.3715625 43.68835938 -45.078125 44.04296875 C-52.34267377 46.42239983 -62.15161033 43.48421805 -69.22265625 40.9296875 C-71.9220234 39.51771084 -73.41541909 37.54910842 -75 35 C-72 35 -72 35 -69.27734375 35.98046875 C-62.52120292 38.08220028 -53.37051804 38.50813436 -46.8125 35.5 C-45.884375 35.005 -44.95625 34.51 -44 34 C-42.68 34 -41.36 34 -40 34 C-40 33.34 -40 32.68 -40 32 C-39.34 31.67 -38.68 31.34 -38 31 C-37.27306096 29.02111039 -36.60183749 27.02045442 -36 25 C-39.96 25 -43.92 25 -48 25 C-48 23.02 -48 21.04 -48 19 C-49.01156693 17.07152146 -49.01156693 17.07152146 -50.5 15.625 C-51.7375 14.325625 -51.7375 14.325625 -53 13 C-48.03715966 10.62886517 -43.54050113 8.56825653 -38 8 C-40.86177057 6.56911472 -42.93375773 7.40008303 -46 8 C-45.67 7.34 -45.34 6.68 -45 6 C-47.31 6 -49.62 6 -52 6 C-47.39276425 1.55163445 -41.94953432 -0.03831144 -36 -2 C-25.20678935 -5.59773688 -10.70724962 -3.09984119 0 0 Z " fill="#5A0000" transform="translate(219,173)"/>
<path d="M0 0 C0.99 0.66 1.98 1.32 3 2 C2.67 3.32 2.34 4.64 2 6 C1.236875 5.814375 0.47375 5.62875 -0.3125 5.4375 C-3.08967375 4.77180827 -3.08967375 4.77180827 -6 6 C-6.33 6.66 -6.66 7.32 -7 8 C-3.37 9.32 0.26 10.64 4 12 C4 12.66 4 13.32 4 14 C8.02992782 13.44687265 12.02022924 12.8441938 16 12 C19.29677083 15.75149784 21.15056722 19.37641805 23 24 C23.65288627 25.34013497 24.31225595 26.67741528 25 28 C23 30 23 30 20.1875 30.375 C16.27000366 29.91411808 14.96432747 28.51967835 12 26 C10.01643517 25.28591666 8.01684563 24.61382258 6 24 C5.01 23.34 4.02 22.68 3 22 C3.0825 22.9075 3.165 23.815 3.25 24.75 C3 28 3 28 1 30.3125 C0.01 31.1478125 0.01 31.1478125 -1 32 C-1 32.33 -1 32.66 -1 33 C1.64 33.66 4.28 34.32 7 35 C7 36.65 7 38.3 7 40 C0.25 39.125 0.25 39.125 -2 38 C-3.485 37.8453125 -3.485 37.8453125 -5 37.6875 C-8 37 -8 37 -9.375 34.9375 C-9.684375 33.9784375 -9.684375 33.9784375 -10 33 C-11.32 33 -12.64 33 -14 33 C-13.91298828 33.99580078 -13.91298828 33.99580078 -13.82421875 35.01171875 C-13.59317979 39.53348124 -13.50422477 42.20036254 -15.9375 46.125 C-20.08242407 48.66270861 -23.25685092 48.91619803 -28 48 C-30.54916107 46.87721261 -32.65286341 45.53282389 -35 44 C-37.24362573 43.7715451 -37.24362573 43.7715451 -39.125 46 C-39.74375 46.66 -40.3625 47.32 -41 48 C-41.66 46.35 -42.32 44.7 -43 43 C-43.68578125 43.34417969 -44.3715625 43.68835938 -45.078125 44.04296875 C-52.34267377 46.42239983 -62.15161033 43.48421805 -69.22265625 40.9296875 C-71.9220234 39.51771084 -73.41541909 37.54910842 -75 35 C-72 35 -72 35 -69.27734375 35.98046875 C-62.52120292 38.08220028 -53.37051804 38.50813436 -46.8125 35.5 C-45.884375 35.005 -44.95625 34.51 -44 34 C-42.68 34 -41.36 34 -40 34 C-40 33.34 -40 32.68 -40 32 C-39.34 31.67 -38.68 31.34 -38 31 C-37.27306096 29.02111039 -36.60183749 27.02045442 -36 25 C-39.96 25 -43.92 25 -48 25 C-48 23.02 -48 21.04 -48 19 C-49.01156693 17.07152146 -49.01156693 17.07152146 -50.5 15.625 C-51.7375 14.325625 -51.7375 14.325625 -53 13 C-48.03715966 10.62886517 -43.54050113 8.56825653 -38 8 C-40.86177057 6.56911472 -42.93375773 7.40008303 -46 8 C-45.67 7.34 -45.34 6.68 -45 6 C-47.31 6 -49.62 6 -52 6 C-47.39276425 1.55163445 -41.94953432 -0.03831144 -36 -2 C-25.20678935 -5.59773688 -10.70724962 -3.09984119 0 0 Z " fill="#4F0000" transform="translate(219,45)"/>
<path d="M0 0 C0.82048828 0.00515625 1.64097656 0.0103125 2.48632812 0.015625 C7.26175462 0.07660411 11.83766866 0.50021568 16.5625 1.25 C20.11648289 1.38937188 23.15618385 1.29809728 26.5625 0.25 C29.85927083 4.00149784 31.71306722 7.62641805 33.5625 12.25 C34.21538627 13.59013497 34.87475595 14.92741528 35.5625 16.25 C33.5625 18.25 33.5625 18.25 30.75 18.625 C26.83250366 18.16411808 25.52682747 16.76967835 22.5625 14.25 C20.57893517 13.53591666 18.57934563 12.86382258 16.5625 12.25 C15.5725 11.59 14.5825 10.93 13.5625 10.25 C13.645 11.1575 13.7275 12.065 13.8125 13 C13.5625 16.25 13.5625 16.25 11.5625 18.5625 C10.9025 19.119375 10.2425 19.67625 9.5625 20.25 C9.5625 20.58 9.5625 20.91 9.5625 21.25 C12.2025 21.91 14.8425 22.57 17.5625 23.25 C17.5625 24.9 17.5625 26.55 17.5625 28.25 C13.53110286 27.69667098 9.54785436 27.06909701 5.5625 26.25 C5.85125 27.09304687 6.14 27.93609375 6.4375 28.8046875 C6.80875 29.90039062 7.18 30.99609375 7.5625 32.125 C7.93375 33.21554688 8.305 34.30609375 8.6875 35.4296875 C9.5625 38.25 9.5625 38.25 9.5625 40.25 C8.98242188 40.02183594 8.40234375 39.79367188 7.8046875 39.55859375 C2.98794204 37.78609501 -0.32224517 36.80723582 -5.4375 38.25 C-5.7675 37.59 -6.0975 36.93 -6.4375 36.25 C-7.15035156 36.29640625 -7.86320312 36.3428125 -8.59765625 36.390625 C-15.28690504 36.64270975 -18.91387233 36.01076778 -24.4375 32.25 C-26.68112573 32.0215451 -26.68112573 32.0215451 -28.5625 34.25 C-29.18125 34.91 -29.8 35.57 -30.4375 36.25 C-31.0975 34.6 -31.7575 32.95 -32.4375 31.25 C-33.12328125 31.59417969 -33.8090625 31.93835938 -34.515625 32.29296875 C-41.78017377 34.67239983 -51.58911033 31.73421805 -58.66015625 29.1796875 C-61.3595234 27.76771084 -62.85291909 25.79910842 -64.4375 23.25 C-61.4375 23.25 -61.4375 23.25 -58.70703125 24.2265625 C-51.32573406 26.53707608 -42.3701446 26.54476537 -35.25 23.375 C-33.96583836 22.69112694 -32.69373168 21.98391787 -31.4375 21.25 C-30.73496094 20.96253906 -30.03242187 20.67507812 -29.30859375 20.37890625 C-26.87984438 18.9135439 -26.58355294 17.71865692 -25.6875 15.0625 C-23.06453656 8.64966418 -18.51284448 5.18616124 -12.76953125 1.5703125 C-8.39083661 -0.16473883 -4.65923581 -0.11657197 0 0 Z " fill="#5D0000" transform="translate(80.4375,184.75)"/>
<path d="M0 0 C2.38591534 0.69831668 4.36416456 1.61115956 6.5625 2.75 C6.00820312 3.01554687 5.45390625 3.28109375 4.8828125 3.5546875 C4.15835938 3.90789062 3.43390625 4.26109375 2.6875 4.625 C1.96820313 4.97304687 1.24890625 5.32109375 0.5078125 5.6796875 C-1.58885019 6.71557543 -1.58885019 6.71557543 -3.4375 8.75 C-2.76203125 9.19730469 -2.0865625 9.64460938 -1.390625 10.10546875 C7.46935413 16.1102812 7.46935413 16.1102812 10.5625 20.75 C11.0575 20.255 11.0575 20.255 11.5625 19.75 C11.47199896 18.1209813 11.31522131 16.49540372 11.125 14.875 C10.80817125 12.12380351 10.5625 9.52296853 10.5625 6.75 C12.51899397 5.91235732 14.47775556 5.08000941 16.4375 4.25 C17.52804688 3.7859375 18.61859375 3.321875 19.7421875 2.84375 C22.5625 1.75 22.5625 1.75 24.5625 1.75 C23.8125 8.5 23.8125 8.5 21.5625 10.75 C21.8810177 12.85820797 21.8810177 12.85820797 22.5625 14.75 C24.22861905 14.792721 25.89632885 14.79063832 27.5625 14.75 C27.8925 14.42 28.2225 14.09 28.5625 13.75 C30.90194736 14.03730055 33.2364143 14.36936779 35.5625 14.75 C35.5625 16.4 35.5625 18.05 35.5625 19.75 C28.8125 18.875 28.8125 18.875 26.5625 17.75 C25.5725 17.646875 24.5825 17.54375 23.5625 17.4375 C20.5625 16.75 20.5625 16.75 19.1875 14.6875 C18.878125 13.7284375 18.878125 13.7284375 18.5625 12.75 C17.2425 13.08 15.9225 13.41 14.5625 13.75 C14.62050781 14.34167969 14.67851563 14.93335937 14.73828125 15.54296875 C14.98273005 19.82431492 14.96982734 22.10616002 12.625 25.8125 C8.4872295 28.43027318 5.33675703 28.67220691 0.5625 27.75 C-1.98666107 26.62721261 -4.09036341 25.28282389 -6.4375 23.75 C-8.68112573 23.5215451 -8.68112573 23.5215451 -10.5625 25.75 C-11.18125 26.41 -11.8 27.07 -12.4375 27.75 C-13.0975 26.1 -13.7575 24.45 -14.4375 22.75 C-15.12328125 23.09417969 -15.8090625 23.43835938 -16.515625 23.79296875 C-23.78017377 26.17239983 -33.58911033 23.23421805 -40.66015625 20.6796875 C-43.3595234 19.26771084 -44.85291909 17.29910842 -46.4375 14.75 C-43.4375 14.75 -43.4375 14.75 -40.70703125 15.7265625 C-33.32573406 18.03707608 -24.3701446 18.04476537 -17.25 14.875 C-15.96583836 14.19112694 -14.69373168 13.48391787 -13.4375 12.75 C-12.74140625 12.46898438 -12.0453125 12.18796875 -11.328125 11.8984375 C-8.82972954 10.38081712 -8.39016914 8.95711769 -7.375 6.25 C-5.90573664 2.36559559 -4.74075022 -0.48623079 0 0 Z " fill="#760101" transform="translate(62.4375,66.25)"/>
<path d="M0 0 C5.67293702 0.63531761 11.18119845 1.56373844 16.75 2.8125 C17.53568359 2.98845703 18.32136719 3.16441406 19.13085938 3.34570312 C29.10895991 5.6420555 38.55628278 9.07208222 48 13 C46.64829428 20.22127471 44.27892105 24.47807093 38.2734375 28.7421875 C34.69178855 30.72378709 31.02773602 31.45923915 27 32 C26.855625 31.21625 26.71125 30.4325 26.5625 29.625 C26.12201075 27.03578982 26.12201075 27.03578982 25 25 C23.02111039 24.27306096 21.02045442 23.60183749 19 23 C19.2475 22.0925 19.495 21.185 19.75 20.25 C20.31679192 17.00343537 20.31679192 17.00343537 18.5625 14.625 C14.87877417 12.28897874 12.31376798 12.71241547 8 13 C7.35242375 11.56328432 6.70700547 10.12559584 6.0625 8.6875 C5.70285156 7.88699219 5.34320313 7.08648437 4.97265625 6.26171875 C4 4 4 4 3 1 C2.01 0.67 1.02 0.34 0 0 Z " fill="#F20404" transform="translate(43,34)"/>
<path d="M0 0 C0.66 0.66 1.32 1.32 2 2 C2.99 1.34 3.98 0.68 5 0 C10.04032425 0.14522968 14.04644306 1.24510076 18 4.375 C19.66032952 6.55418249 20.97001612 8.47185775 22 11 C20 13 20 13 17.1875 13.375 C13.27000366 12.91411808 11.96432747 11.51967835 9 9 C7.01643517 8.28591666 5.01684563 7.61382258 3 7 C2.01 6.34 1.02 5.68 0 5 C0.0825 5.9075 0.165 6.815 0.25 7.75 C0 11 0 11 -2 13.3125 C-2.66 13.869375 -3.32 14.42625 -4 15 C-4 15.33 -4 15.66 -4 16 C-1.36 16.66 1.28 17.32 4 18 C4 19.65 4 21.3 4 23 C-0.03139714 22.44667098 -4.01464564 21.81909701 -8 21 C-7.71125 21.84304687 -7.4225 22.68609375 -7.125 23.5546875 C-6.75375 24.65039062 -6.3825 25.74609375 -6 26.875 C-5.62875 27.96554688 -5.2575 29.05609375 -4.875 30.1796875 C-4 33 -4 33 -4 35 C-4.58007812 34.77183594 -5.16015625 34.54367188 -5.7578125 34.30859375 C-10.57455796 32.53609501 -13.88474517 31.55723582 -19 33 C-19.33 32.34 -19.66 31.68 -20 31 C-20.71285156 31.04640625 -21.42570312 31.0928125 -22.16015625 31.140625 C-30.94876947 31.47182442 -30.94876947 31.47182442 -34.9375 28.9375 C-37.74427918 26.72003828 -37.74427918 26.72003828 -40.4375 27.25 C-40.953125 27.4975 -41.46875 27.745 -42 28 C-42.66 26.68 -43.32 25.36 -44 24 C-42.875 22.5 -42.875 22.5 -41 21 C-37.8125 20.8125 -37.8125 20.8125 -35 21 C-35 21.99 -35 22.98 -35 24 C-33.62714844 24.09087891 -33.62714844 24.09087891 -32.2265625 24.18359375 C-31.03804687 24.26738281 -29.84953125 24.35117188 -28.625 24.4375 C-27.44164063 24.51871094 -26.25828125 24.59992188 -25.0390625 24.68359375 C-22 25 -22 25 -20 26 C-20 26.99 -20 27.98 -20 29 C-18.081875 28.9690625 -18.081875 28.9690625 -16.125 28.9375 C-12.25 28.875 -12.25 28.875 -10 30 C-10.144375 29.11957031 -10.28875 28.23914063 -10.4375 27.33203125 C-10.623125 26.17058594 -10.80875 25.00914062 -11 23.8125 C-11.185625 22.66394531 -11.37125 21.51539063 -11.5625 20.33203125 C-11.706875 19.23246094 -11.85125 18.13289063 -12 17 C-12.12117188 16.1440625 -12.24234375 15.288125 -12.3671875 14.40625 C-11.80839963 10.74440612 -9.7580975 9.20497991 -7.125 6.6875 C-6.22007813 5.80449219 -5.31515625 4.92148438 -4.3828125 4.01171875 C-2 2 -2 2 0 2 C0 1.34 0 0.68 0 0 Z " fill="#580000" transform="translate(94,190)"/>
<path d="M0 0 C-0.99 0.66 -1.98 1.32 -3 2 C-3.33 2.33 -3.66 2.66 -4 3 C-3.154375 2.67 -2.30875 2.34 -1.4375 2 C2.20989216 0.93894046 5.22274664 0.84890987 9 1 C6.6068876 3.3931124 5.53090916 3.3878347 2.25 3.875 C-5.94686187 5.43686623 -10.03158149 9.87654319 -15.265625 16.07421875 C-17 18 -17 18 -19 19 C-18.505 22.465 -18.505 22.465 -18 26 C-18.66 26 -19.32 26 -20 26 C-20 25.01 -20 24.02 -20 23 C-22.97 24.98 -25.94 26.96 -29 29 C-28.34 30.65 -27.68 32.3 -27 34 C-27.99 34.66 -28.98 35.32 -30 36 C-30.66 34.35 -31.32 32.7 -32 31 C-32.68578125 31.34417969 -33.3715625 31.68835938 -34.078125 32.04296875 C-41.34267377 34.42239983 -51.15161033 31.48421805 -58.22265625 28.9296875 C-60.9220234 27.51771084 -62.41541909 25.54910842 -64 23 C-61 23 -61 23 -58.26953125 23.9765625 C-50.88823406 26.28707608 -41.9326446 26.29476537 -34.8125 23.125 C-33.52833836 22.44112694 -32.25623168 21.73391787 -31 21 C-30.29746094 20.71253906 -29.59492187 20.42507812 -28.87109375 20.12890625 C-26.44234438 18.6635439 -26.14605294 17.46865692 -25.25 14.8125 C-22.57588877 8.27461388 -17.82278393 4.86183621 -12.0625 1.0625 C-7.97537979 -0.35548048 -4.28160436 -0.25689626 0 0 Z " fill="#600214" transform="translate(80,185)"/>
<path d="M0 0 C0.99 0.66 1.98 1.32 3 2 C2.67 3.32 2.34 4.64 2 6 C1.236875 5.814375 0.47375 5.62875 -0.3125 5.4375 C-3.08967375 4.77180827 -3.08967375 4.77180827 -6 6 C-6.33 6.66 -6.66 7.32 -7 8 C-4.36 8.99 -1.72 9.98 1 11 C-2.5975762 12.19919207 -4.62521923 11.38691522 -8.21826172 10.52050781 C-13.77117457 9.48146883 -19.42805109 9.51878179 -25.0625 9.375 C-26.30966797 9.33632812 -27.55683594 9.29765625 -28.84179688 9.2578125 C-31.89439017 9.16424642 -34.94698847 9.07850328 -38 9 C-38 8.34 -38 7.68 -38 7 C-40.64 7.33 -43.28 7.66 -46 8 C-45.67 7.34 -45.34 6.68 -45 6 C-47.31 6 -49.62 6 -52 6 C-47.39276425 1.55163445 -41.94953432 -0.03831144 -36 -2 C-25.20678935 -5.59773688 -10.70724962 -3.09984119 0 0 Z " fill="#260000" transform="translate(219,173)"/>
<path d="M0 0 C0.99 0.66 1.98 1.32 3 2 C2.67 3.32 2.34 4.64 2 6 C1.236875 5.814375 0.47375 5.62875 -0.3125 5.4375 C-3.08967375 4.77180827 -3.08967375 4.77180827 -6 6 C-6.33 6.66 -6.66 7.32 -7 8 C-4.36 8.99 -1.72 9.98 1 11 C-2.5975762 12.19919207 -4.62521923 11.38691522 -8.21826172 10.52050781 C-13.77117457 9.48146883 -19.42805109 9.51878179 -25.0625 9.375 C-26.30966797 9.33632813 -27.55683594 9.29765625 -28.84179688 9.2578125 C-31.89439017 9.16424642 -34.94698847 9.07850328 -38 9 C-38 8.34 -38 7.68 -38 7 C-40.64 7.33 -43.28 7.66 -46 8 C-45.67 7.34 -45.34 6.68 -45 6 C-47.31 6 -49.62 6 -52 6 C-47.39276425 1.55163445 -41.94953432 -0.03831144 -36 -2 C-25.20678935 -5.59773688 -10.70724962 -3.09984119 0 0 Z " fill="#260000" transform="translate(219,45)"/>
<path d="M0 0 C0.495 1.98 0.495 1.98 1 4 C2.32 3.67 3.64 3.34 5 3 C5.495 3.99 5.495 3.99 6 5 C5.154375 5.474375 4.30875 5.94875 3.4375 6.4375 C-1.03321493 9.37174011 -3.90747937 13.71804836 -7 18 C-9 16.625 -9 16.625 -11 15 C-11 14.34 -11 13.68 -11 13 C-12.65 13 -14.3 13 -16 13 C-15.01 11.68 -14.02 10.36 -13 9 C-13.70125 9.495 -14.4025 9.99 -15.125 10.5 C-18.51763896 12.2700725 -20.21629826 12.45404421 -24 12 C-30.04968944 9.95031056 -30.04968944 9.95031056 -32 8 C-33.32 8 -34.64 8 -36 8 C-36.66 5.69 -37.32 3.38 -38 1 C-11.31426281 -2.69901308 -11.31426281 -2.69901308 0 0 Z " fill="#730000" transform="translate(211,185)"/>
<path d="M0 0 C0.495 1.98 0.495 1.98 1 4 C2.32 3.67 3.64 3.34 5 3 C5.495 3.99 5.495 3.99 6 5 C5.154375 5.474375 4.30875 5.94875 3.4375 6.4375 C-1.03321493 9.37174011 -3.90747937 13.71804836 -7 18 C-9 16.625 -9 16.625 -11 15 C-11 14.34 -11 13.68 -11 13 C-12.65 13 -14.3 13 -16 13 C-15.01 11.68 -14.02 10.36 -13 9 C-13.70125 9.495 -14.4025 9.99 -15.125 10.5 C-18.51763896 12.2700725 -20.21629826 12.45404421 -24 12 C-30.04968944 9.95031056 -30.04968944 9.95031056 -32 8 C-33.32 8 -34.64 8 -36 8 C-36.66 5.69 -37.32 3.38 -38 1 C-11.31426281 -2.69901308 -11.31426281 -2.69901308 0 0 Z " fill="#730000" transform="translate(211,57)"/>
<path d="M0 0 C10.15783155 -0.29238961 19.63096169 -0.32853392 29.55859375 2.15625 C32.61348299 2.90523533 35.65229705 3.47031898 38.75463867 3.97949219 C45.65988547 5.13191561 52.22907759 6.8571654 58.875 9.0625 C59.65456055 9.3200708 60.43412109 9.5776416 61.23730469 9.84301758 C66.73557294 11.73557294 66.73557294 11.73557294 69 14 C68.67 14.99 68.34 15.98 68 17 C67.01 16.01 67.01 16.01 66 15 C62.12202338 14.56613908 62.12202338 14.56613908 60.25 16.5 C59.63125 17.2425 59.63125 17.2425 59 18 C57.88625 17.67386719 56.7725 17.34773438 55.625 17.01171875 C44.5222314 13.81377845 33.50584259 11.42530335 22.109375 9.515625 C19.6875 9.0625 19.6875 9.0625 16 8 C15.566875 7.35417969 15.13375 6.70835938 14.6875 6.04296875 C12.27372868 3.12074097 9.97465418 2.97517905 6.3125 2.25 C4.54326172 1.88648437 4.54326172 1.88648437 2.73828125 1.515625 C1.83464844 1.34546875 0.93101563 1.1753125 0 1 C0 0.67 0 0.34 0 0 Z " fill="#230000" transform="translate(33,25)"/>
<path d="M0 0 C10.15783155 -0.29238961 19.63096169 -0.32853392 29.55859375 2.15625 C32.61348299 2.90523533 35.65229705 3.47031898 38.75463867 3.97949219 C45.65988547 5.13191561 52.22907759 6.8571654 58.875 9.0625 C59.65456055 9.3200708 60.43412109 9.5776416 61.23730469 9.84301758 C66.73557294 11.73557294 66.73557294 11.73557294 69 14 C68.67 14.99 68.34 15.98 68 17 C67.01 16.01 67.01 16.01 66 15 C64.68 15 63.36 15 62 15 C60.01637931 17.91708924 60.0123809 19.12380904 60.375 22.75 C60.58125 23.8225 60.7875 24.895 61 26 C62.41655793 26.0272415 63.83327045 26.04650467 65.25 26.0625 C66.43335937 26.07990234 66.43335937 26.07990234 67.640625 26.09765625 C69.90691002 26.00385306 71.8288895 25.63241063 74 25 C78 29.625 78 29.625 78 33 C75.03 32.34 72.06 31.68 69 31 C69.495 32.98 69.495 32.98 70 35 C69.505 34.731875 69.01 34.46375 68.5 34.1875 C60.58728064 30.42895831 55.69583076 29.67324641 47 31 C47 31.66 47 32.32 47 33 C45.68 32.34 44.36 31.68 43 31 C44.3303125 30.38125 44.3303125 30.38125 45.6875 29.75 C53.1889171 25.78698719 55.31837287 21.85012636 58 14 C56.741875 13.62875 55.48375 13.2575 54.1875 12.875 C50.66153383 11.82768332 47.15871232 10.72859436 43.66796875 9.5703125 C26.58075604 3.15120039 26.58075604 3.15120039 9 3 C6.640625 2.66015625 6.640625 2.66015625 4.25 2.0625 C3.05117188 1.77052734 3.05117188 1.77052734 1.828125 1.47265625 C1.22484375 1.31667969 0.6215625 1.16070312 0 1 C0 0.67 0 0.34 0 0 Z " fill="#910000" transform="translate(33,33)"/>
<path d="M0 0 C0.82242188 0.11730469 1.64484375 0.23460937 2.4921875 0.35546875 C8.17643854 1.20726305 11.37064548 2.23647219 15 7 C16.3125 9.3125 16.3125 9.3125 17 11 C15 13 15 13 12.1875 13.375 C8.27000366 12.91411808 6.96432747 11.51967835 4 9 C2.01643517 8.28591666 0.01684563 7.61382258 -2 7 C-2.99 6.34 -3.98 5.68 -5 5 C-4.87625 6.36125 -4.87625 6.36125 -4.75 7.75 C-5 11 -5 11 -7 13.3125 C-7.66 13.869375 -8.32 14.42625 -9 15 C-9 15.33 -9 15.66 -9 16 C-6.36 16.66 -3.72 17.32 -1 18 C-1 19.65 -1 21.3 -1 23 C-7.75 22.125 -7.75 22.125 -10 21 C-10.99 20.855625 -11.98 20.71125 -13 20.5625 C-16 20 -16 20 -18 18 C-17.63309191 11.94601652 -14.57103822 5.07100717 -10.1875 0.875 C-6.08121309 -1.54046289 -4.57623387 -1.14405847 0 0 Z " fill="#9E0000" transform="translate(227,190)"/>
<path d="M0 0 C0.82242188 0.11730469 1.64484375 0.23460937 2.4921875 0.35546875 C8.17643854 1.20726305 11.37064548 2.23647219 15 7 C16.3125 9.3125 16.3125 9.3125 17 11 C15 13 15 13 12.1875 13.375 C8.27000366 12.91411808 6.96432747 11.51967835 4 9 C2.01643517 8.28591666 0.01684563 7.61382258 -2 7 C-2.99 6.34 -3.98 5.68 -5 5 C-4.87625 6.36125 -4.87625 6.36125 -4.75 7.75 C-5 11 -5 11 -7 13.3125 C-7.66 13.869375 -8.32 14.42625 -9 15 C-9 15.33 -9 15.66 -9 16 C-6.36 16.66 -3.72 17.32 -1 18 C-1 19.65 -1 21.3 -1 23 C-7.75 22.125 -7.75 22.125 -10 21 C-10.99 20.855625 -11.98 20.71125 -13 20.5625 C-16 20 -16 20 -18 18 C-17.63309191 11.94601652 -14.57103822 5.07100717 -10.1875 0.875 C-6.08121309 -1.54046289 -4.57623387 -1.14405847 0 0 Z " fill="#9E0000" transform="translate(227,62)"/>
<path d="M0 0 C2.38591534 0.69831668 4.36416456 1.61115956 6.5625 2.75 C6.00820312 3.01554687 5.45390625 3.28109375 4.8828125 3.5546875 C4.15835938 3.90789062 3.43390625 4.26109375 2.6875 4.625 C1.96820313 4.97304687 1.24890625 5.32109375 0.5078125 5.6796875 C-1.58885019 6.71557543 -1.58885019 6.71557543 -3.4375 8.75 C-2.7775 9.41 -2.1175 10.07 -1.4375 10.75 C-2 14.125 -2 14.125 -3.4375 17.75 C-7.0625 19.1875 -7.0625 19.1875 -10.4375 19.75 C-10.4375 21.07 -10.4375 22.39 -10.4375 23.75 C-10.4375 24.74 -10.4375 25.73 -10.4375 26.75 C-11.4275 26.75 -12.4175 26.75 -13.4375 26.75 C-13.9325 24.77 -13.9325 24.77 -14.4375 22.75 C-15.12328125 23.09417969 -15.8090625 23.43835938 -16.515625 23.79296875 C-23.78017377 26.17239983 -33.58911033 23.23421805 -40.66015625 20.6796875 C-43.3595234 19.26771084 -44.85291909 17.29910842 -46.4375 14.75 C-43.4375 14.75 -43.4375 14.75 -40.70703125 15.7265625 C-33.32573406 18.03707608 -24.3701446 18.04476537 -17.25 14.875 C-15.96583836 14.19112694 -14.69373168 13.48391787 -13.4375 12.75 C-12.74140625 12.46898438 -12.0453125 12.18796875 -11.328125 11.8984375 C-8.82972954 10.38081712 -8.39016914 8.95711769 -7.375 6.25 C-5.90573664 2.36559559 -4.74075022 -0.48623079 0 0 Z " fill="#5F0112" transform="translate(62.4375,66.25)"/>
<path d="M0 0 C3.7458979 3.42482094 5.95823617 8.05162181 7 13 C6.13877181 16.96164967 5.42299697 17.71800202 2 20 C-2.74546649 20.79091108 -6.70245536 20.50294903 -10.8125 17.9375 C-13.73052237 15.72444998 -13.73052237 15.72444998 -16.4375 16.25 C-16.953125 16.4975 -17.46875 16.745 -18 17 C-18.66 15.68 -19.32 14.36 -20 13 C-18.875 11.5 -18.875 11.5 -17 10 C-13.8125 9.8125 -13.8125 9.8125 -11 10 C-11.103125 9.0925 -11.20625 8.185 -11.3125 7.25 C-11 4 -11 4 -8.875 1.625 C-5.48771221 -0.28955397 -3.82336376 -0.73213349 0 0 Z " fill="#770101" transform="translate(198,201)"/>
<path d="M0 0 C3.7458979 3.42482094 5.95823617 8.05162181 7 13 C6.13877181 16.96164967 5.42299697 17.71800202 2 20 C-2.74546649 20.79091108 -6.70245536 20.50294903 -10.8125 17.9375 C-13.73052237 15.72444998 -13.73052237 15.72444998 -16.4375 16.25 C-16.953125 16.4975 -17.46875 16.745 -18 17 C-18.66 15.68 -19.32 14.36 -20 13 C-18.875 11.5 -18.875 11.5 -17 10 C-13.8125 9.8125 -13.8125 9.8125 -11 10 C-11.103125 9.0925 -11.20625 8.185 -11.3125 7.25 C-11 4 -11 4 -8.875 1.625 C-5.48771221 -0.28955397 -3.82336376 -0.73213349 0 0 Z " fill="#770101" transform="translate(198,73)"/>
<path d="M0 0 C-0.66 3.3 -1.32 6.6 -2 10 C-4.31 10.66 -6.62 11.32 -9 12 C-9 13.32 -9 14.64 -9 16 C-9 16.99 -9 17.98 -9 19 C-9.99 19 -10.98 19 -12 19 C-12.495 17.02 -12.495 17.02 -13 15 C-14.02867187 15.51626953 -14.02867187 15.51626953 -15.078125 16.04296875 C-22.34267377 18.42239983 -32.15161033 15.48421805 -39.22265625 12.9296875 C-41.9220234 11.51771084 -43.41541909 9.54910842 -45 7 C-42 7 -42 7 -39.27734375 7.98046875 C-32.52120292 10.08220028 -23.37051804 10.50813436 -16.8125 7.5 C-15.884375 7.005 -14.95625 6.51 -14 6 C-12.68 6 -11.36 6 -10 6 C-10 5.34 -10 4.68 -10 4 C-6.32547562 1.1605948 -4.73113419 0 0 0 Z " fill="#5E0113" transform="translate(189,201)"/>
<path d="M0 0 C-0.66 3.3 -1.32 6.6 -2 10 C-4.31 10.66 -6.62 11.32 -9 12 C-9 13.32 -9 14.64 -9 16 C-9 16.99 -9 17.98 -9 19 C-9.99 19 -10.98 19 -12 19 C-12.495 17.02 -12.495 17.02 -13 15 C-14.02867187 15.51626953 -14.02867187 15.51626953 -15.078125 16.04296875 C-22.34267377 18.42239983 -32.15161033 15.48421805 -39.22265625 12.9296875 C-41.9220234 11.51771084 -43.41541909 9.54910842 -45 7 C-42 7 -42 7 -39.27734375 7.98046875 C-32.52120292 10.08220028 -23.37051804 10.50813436 -16.8125 7.5 C-15.884375 7.005 -14.95625 6.51 -14 6 C-12.68 6 -11.36 6 -10 6 C-10 5.34 -10 4.68 -10 4 C-6.32547562 1.1605948 -4.73113419 0 0 0 Z " fill="#5E0113" transform="translate(189,73)"/>
<path d="M0 0 C2.18152006 0.00311509 4.36162063 -0.02015738 6.54296875 -0.0456543 C16.17055514 -0.08701483 24.97768473 1.05899124 34.34765625 3.31567383 C34.34765625 3.97567383 34.34765625 4.63567383 34.34765625 5.31567383 C38.37758407 4.76254648 42.36788549 4.15986763 46.34765625 3.31567383 C50.34765625 7.94067383 50.34765625 7.94067383 50.34765625 11.31567383 C49.34605469 11.09911133 48.34445313 10.88254883 47.3125 10.65942383 C45.97012888 10.37780751 44.62767654 10.09657817 43.28515625 9.81567383 C42.62837891 9.67258789 41.97160156 9.52950195 41.29492188 9.38208008 C36.90557339 8.47393901 32.84846063 8.27072197 28.34765625 8.31567383 C27.68765625 7.98567383 27.02765625 7.65567383 26.34765625 7.31567383 C24.00761455 7.59809265 21.67260902 7.9281817 19.34765625 8.31567383 C20.33765625 7.98567383 21.32765625 7.65567383 22.34765625 7.31567383 C22.34765625 6.65567383 22.34765625 5.99567383 22.34765625 5.31567383 C19.37765625 5.31567383 16.40765625 5.31567383 13.34765625 5.31567383 C14.66765625 4.65567383 15.98765625 3.99567383 17.34765625 3.31567383 C8.13751149 3.20411084 -0.97284654 3.31765545 -10.15405273 4.13574219 C-13.98432045 4.42827187 -15.35011803 4.51715764 -18.65234375 2.31567383 C-12.67728431 -0.54242709 -6.47001078 -0.01925598 0 0 Z " fill="#5C0000" transform="translate(188.65234375,181.684326171875)"/>
<path d="M0 0 C2.18152006 0.00311509 4.36162063 -0.02015738 6.54296875 -0.0456543 C16.17055514 -0.08701483 24.97768473 1.05899124 34.34765625 3.31567383 C34.34765625 3.97567383 34.34765625 4.63567383 34.34765625 5.31567383 C38.37758407 4.76254648 42.36788549 4.15986763 46.34765625 3.31567383 C50.34765625 7.94067383 50.34765625 7.94067383 50.34765625 11.31567383 C49.34605469 11.09911133 48.34445313 10.88254883 47.3125 10.65942383 C45.97012888 10.37780751 44.62767654 10.09657817 43.28515625 9.81567383 C42.62837891 9.67258789 41.97160156 9.52950195 41.29492188 9.38208008 C36.90557339 8.47393901 32.84846063 8.27072197 28.34765625 8.31567383 C27.68765625 7.98567383 27.02765625 7.65567383 26.34765625 7.31567383 C24.00761455 7.59809265 21.67260902 7.9281817 19.34765625 8.31567383 C20.33765625 7.98567383 21.32765625 7.65567383 22.34765625 7.31567383 C22.34765625 6.65567383 22.34765625 5.99567383 22.34765625 5.31567383 C19.37765625 5.31567383 16.40765625 5.31567383 13.34765625 5.31567383 C14.66765625 4.65567383 15.98765625 3.99567383 17.34765625 3.31567383 C8.13751149 3.20411084 -0.97284654 3.31765545 -10.15405273 4.13574219 C-13.98432045 4.42827187 -15.35011803 4.51715764 -18.65234375 2.31567383 C-12.67728431 -0.54242709 -6.47001078 -0.01925598 0 0 Z " fill="#5C0000" transform="translate(188.65234375,53.684326171875)"/>
<path d="M0 0 C-0.99 0.66 -1.98 1.32 -3 2 C-3.33 2.33 -3.66 2.66 -4 3 C-3.154375 2.67 -2.30875 2.34 -1.4375 2 C2.20989216 0.93894046 5.22274664 0.84890987 9 1 C6.6068876 3.3931124 5.53090916 3.3878347 2.25 3.875 C-5.94686187 5.43686623 -10.03158149 9.87654319 -15.265625 16.07421875 C-17 18 -17 18 -19 19 C-18.67 21.31 -18.34 23.62 -18 26 C-18.66 26 -19.32 26 -20 26 C-20 25.01 -20 24.02 -20 23 C-20.66 23 -21.32 23 -22 23 C-22.66 21.68 -23.32 20.36 -24 19 C-22.35 17.68 -20.7 16.36 -19 15 C-19.598125 15.309375 -20.19625 15.61875 -20.8125 15.9375 C-23 17 -23 17 -26 18 C-24.92937127 10.65854583 -20.75969763 7.34915944 -15 3 C-10.00296084 -0.33135944 -5.81174196 -0.34870452 0 0 Z M-27 25 C-24 26 -24 26 -24 26 Z " fill="#240000" transform="translate(80,185)"/>
<path d="M0 0 C10.15783155 -0.29238961 19.63096169 -0.32853392 29.55859375 2.15625 C32.61348299 2.90523533 35.65229705 3.47031898 38.75463867 3.97949219 C45.65988547 5.13191561 52.22907759 6.8571654 58.875 9.0625 C59.65456055 9.3200708 60.43412109 9.5776416 61.23730469 9.84301758 C66.73557294 11.73557294 66.73557294 11.73557294 69 14 C68.67 14.99 68.34 15.98 68 17 C67.01 16.01 67.01 16.01 66 15 C62.12202338 14.56613908 62.12202338 14.56613908 60.25 16.5 C59.63125 17.2425 59.63125 17.2425 59 18 C58.505 16.515 58.505 16.515 58 15 C55.57759499 13.87014692 53.26366739 12.9378565 50.75 12.0625 C50.02490234 11.80235107 49.29980469 11.54220215 48.55273438 11.27416992 C46.37356363 10.50050691 44.18839894 9.74710922 42 9 C40.88109375 8.61328125 39.7621875 8.2265625 38.609375 7.828125 C32.62493317 5.87340782 26.60902259 4.39706812 20.4375 3.1875 C19.41849609 2.98314331 19.41849609 2.98314331 18.37890625 2.7746582 C14.88201992 2.1334746 12.39292895 2.04506051 9 3 C6.640625 2.66015625 6.640625 2.66015625 4.25 2.0625 C3.05117188 1.77052734 3.05117188 1.77052734 1.828125 1.47265625 C1.22484375 1.31667969 0.6215625 1.16070313 0 1 C0 0.67 0 0.34 0 0 Z " fill="#000000" transform="translate(33,25)"/>
<path d="M0 0 C0.99 0 1.98 0 3 0 C2.10922795 6.05724992 0.14320118 10.35391514 -4.625 14.25 C-8.82743457 17.23388477 -12.94068184 18.32073969 -18 19 C-18 16.36 -18 13.72 -18 11 C-17.34 11 -16.68 11 -16 11 C-16 10.34 -16 9.68 -16 9 C-15.26394531 8.76925781 -14.52789062 8.53851563 -13.76953125 8.30078125 C-7.8307683 6.31596351 -4.14030175 4.65783947 0 0 Z " fill="#F90D0D" transform="translate(88,47)"/>
<path d="M0 0 C1.65 0.33 3.3 0.66 5 1 C5.33 1.99 5.66 2.98 6 4 C5.46890625 4.45890625 4.9378125 4.9178125 4.390625 5.390625 C3.68421875 6.00421875 2.9778125 6.6178125 2.25 7.25 C1.55390625 7.85328125 0.8578125 8.4565625 0.140625 9.078125 C-0.91898438 10.02945313 -0.91898438 10.02945313 -2 11 C-2.7528125 11.5775 -3.505625 12.155 -4.28125 12.75 C-6.76342527 15.99939308 -6.20872898 18.89813289 -5.75 22.75 C-5.68425781 23.44738281 -5.61851563 24.14476562 -5.55078125 24.86328125 C-5.38640673 26.57747263 -5.19577346 28.28911023 -5 30 C-7.31 30 -9.62 30 -12 30 C-11.53017631 17.64363706 -8.04708283 9.35812441 0 0 Z " fill="#740000" transform="translate(88,188)"/>
<path d="M0 0 C-0.75 6.75 -0.75 6.75 -3 9 C-2.6814823 11.10820797 -2.6814823 11.10820797 -2 13 C-0.33388095 13.042721 1.33382885 13.04063832 3 13 C3.33 12.67 3.66 12.34 4 12 C6.33944736 12.28730055 8.6739143 12.61936779 11 13 C11 14.65 11 16.3 11 18 C4.25 17.125 4.25 17.125 2 16 C1.01 15.896875 0.02 15.79375 -1 15.6875 C-4 15 -4 15 -5.375 12.9375 C-5.58125 12.298125 -5.7875 11.65875 -6 11 C-7.32 11.33 -8.64 11.66 -10 12 C-10.33 14.31 -10.66 16.62 -11 19 C-11.33 19 -11.66 19 -12 19 C-12.336611 17.22978678 -12.66917293 15.45880326 -13 13.6875 C-13.185625 12.70136719 -13.37125 11.71523437 -13.5625 10.69921875 C-14 8 -14 8 -14 5 C-12.04350603 4.16235732 -10.08474444 3.33000941 -8.125 2.5 C-6.48917969 1.80390625 -6.48917969 1.80390625 -4.8203125 1.09375 C-2 0 -2 0 0 0 Z " fill="#680000" transform="translate(87,68)"/>
<path d="M0 0 C0 3 0 3 -1.8125 5.8125 C-5.14824848 11.29689786 -5.86004559 17.77343082 -7 24 C-9.64 23.34 -12.28 22.68 -15 22 C-15.51964573 17.85520668 -15.25950535 16.35167449 -12.734375 12.9296875 C-11.75455319 11.89704511 -10.75914315 10.87900757 -9.75 9.875 C-9.25886719 9.36324219 -8.76773438 8.85148438 -8.26171875 8.32421875 C-6.85715007 6.86721284 -5.42903025 5.43302196 -4 4 C-3.22140625 3.21882812 -2.4428125 2.43765625 -1.640625 1.6328125 C-1.09921875 1.09398437 -0.5578125 0.55515625 0 0 Z " fill="#750000" transform="translate(82,191)"/>
<path d="M0 0 C2.0625 0.4375 2.0625 0.4375 4 1 C4 1.99 4 2.98 4 4 C4.598125 4.226875 5.19625 4.45375 5.8125 4.6875 C8.65517943 6.39310766 9.60915375 8.00968056 11 11 C11.375 13.6875 11.375 13.6875 11 16 C10.01 16.66 9.02 17.32 8 18 C7.360625 16.96875 6.72125 15.9375 6.0625 14.875 C2.8831028 10.36319646 -1.31490839 7.78655775 -6 5 C-5.195625 4.360625 -4.39125 3.72125 -3.5625 3.0625 C-1.7249496 1.59396498 -1.7249496 1.59396498 0 0 Z " fill="#FE0101" transform="translate(64,70)"/>
<path d="M0 0 C0.33 0.66 0.66 1.32 1 2 C6.66903735 3.83410032 12.33132422 2.20244638 18 1 C22 5.625 22 5.625 22 9 C19.03 8.34 16.06 7.68 13 7 C13.33 8.32 13.66 9.64 14 11 C13.505 10.731875 13.01 10.46375 12.5 10.1875 C6.0864865 7.14108109 1.16498053 5.61616176 -6 6 C-4 4 -2 2 0 0 Z " fill="#840000" transform="translate(89,57)"/>
<path d="M0 0 C0.75 2.25 0.75 2.25 1 5 C-0.9375 7.25 -0.9375 7.25 -3 9 C-3 9.33 -3 9.66 -3 10 C-0.36 10.66 2.28 11.32 5 12 C5 13.65 5 15.3 5 17 C-1.75 16.125 -1.75 16.125 -4 15 C-5.32 15 -6.64 15 -8 15 C-9.31382316 10.00747198 -9.31382316 10.00747198 -9 7 C-6.8825063 3.88774965 -3.99863214 0 0 0 Z " fill="#F90E0E" transform="translate(93,196)"/>
<path d="M0 0 C-2.3931124 2.3931124 -3.46909084 2.3878347 -6.75 2.875 C-14.94686187 4.43686623 -19.03158149 8.87654319 -24.265625 15.07421875 C-26 17 -26 17 -28 18 C-27.67 20.31 -27.34 22.62 -27 25 C-27.66 25 -28.32 25 -29 25 C-29 24.01 -29 23.02 -29 22 C-29.66 22 -30.32 22 -31 22 C-31.66 20.68 -32.32 19.36 -33 18 C-29.66666667 14.66666667 -26.33333333 11.33333333 -23 8 C-22.40960938 7.33613281 -21.81921875 6.67226562 -21.2109375 5.98828125 C-15.71796545 1.04848837 -7.23324643 -0.65756786 0 0 Z M-36 24 C-33 25 -33 25 -33 25 Z " fill="#4C0000" transform="translate(89,186)"/>
<path d="M0 0 C3.55398289 0.13937188 6.59368385 0.04809728 10 -1 C14 3.625 14 3.625 14 7 C13.09636719 6.83242187 12.19273438 6.66484375 11.26171875 6.4921875 C9.49248047 6.18667969 9.49248047 6.18667969 7.6875 5.875 C5.92986328 5.56175781 5.92986328 5.56175781 4.13671875 5.2421875 C0.83713728 4.66288712 0.83713728 4.66288712 -2 7 C-2.2475 6.195625 -2.495 5.39125 -2.75 4.5625 C-3.70871054 1.92559077 -3.70871054 1.92559077 -5.6875 1.1875 C-12.80229982 0.61062434 -18.29613819 1.73390587 -25 4 C-18.13788542 -3.13581715 -9.05408253 -1.39293577 0 0 Z " fill="#480000" transform="translate(97,186)"/>
<path d="M0 0 C1.9375 1.375 1.9375 1.375 2.9375 3.75 C2.9375 6.375 2.9375 6.375 1 8.625 C0.319375 9.2025 -0.36125 9.78 -1.0625 10.375 C-1.0625 10.705 -1.0625 11.035 -1.0625 11.375 C-0.4025 11.705 0.2575 12.035 0.9375 12.375 C-1.0625 14.375 -1.0625 14.375 -3.5625 14.625 C-6.0625 14.375 -6.0625 14.375 -8.0625 12.375 C-7.77734375 10.51171875 -7.77734375 10.51171875 -7.0625 8.375 C-6.72412109 7.33279297 -6.72412109 7.33279297 -6.37890625 6.26953125 C-6.13011719 5.58246094 -5.88132813 4.89539063 -5.625 4.1875 C-5.25568359 3.14529297 -5.25568359 3.14529297 -4.87890625 2.08203125 C-3.64855715 -0.49051687 -2.70562029 -0.81988494 0 0 Z " fill="#F90808" transform="translate(219.0625,194.625)"/>
<path d="M0 0 C1.9375 1.375 1.9375 1.375 2.9375 3.75 C2.9375 6.375 2.9375 6.375 1 8.625 C0.319375 9.2025 -0.36125 9.78 -1.0625 10.375 C-1.0625 10.705 -1.0625 11.035 -1.0625 11.375 C-0.4025 11.705 0.2575 12.035 0.9375 12.375 C-1.0625 14.375 -1.0625 14.375 -3.5625 14.625 C-6.0625 14.375 -6.0625 14.375 -8.0625 12.375 C-7.77734375 10.51171875 -7.77734375 10.51171875 -7.0625 8.375 C-6.72412109 7.33279297 -6.72412109 7.33279297 -6.37890625 6.26953125 C-6.13011719 5.58246094 -5.88132812 4.89539063 -5.625 4.1875 C-5.25568359 3.14529297 -5.25568359 3.14529297 -4.87890625 2.08203125 C-3.64855715 -0.49051687 -2.70562029 -0.81988494 0 0 Z " fill="#F90808" transform="translate(91.0625,67.625)"/>
<path d="M0 0 C1.9375 1.375 1.9375 1.375 2.9375 3.75 C2.9375 6.375 2.9375 6.375 1 8.625 C0.319375 9.2025 -0.36125 9.78 -1.0625 10.375 C-1.0625 10.705 -1.0625 11.035 -1.0625 11.375 C-0.4025 11.705 0.2575 12.035 0.9375 12.375 C-1.0625 14.375 -1.0625 14.375 -3.5625 14.625 C-6.0625 14.375 -6.0625 14.375 -8.0625 12.375 C-7.77734375 10.51171875 -7.77734375 10.51171875 -7.0625 8.375 C-6.72412109 7.33279297 -6.72412109 7.33279297 -6.37890625 6.26953125 C-6.13011719 5.58246094 -5.88132813 4.89539063 -5.625 4.1875 C-5.25568359 3.14529297 -5.25568359 3.14529297 -4.87890625 2.08203125 C-3.64855715 -0.49051687 -2.70562029 -0.81988494 0 0 Z " fill="#F90807" transform="translate(219.0625,66.625)"/>
<path d="M0 0 C3.0625 0.5 3.0625 0.5 5.375 2.5625 C7.31415093 5.93805902 7.76013318 8.64482309 8.0625 12.5 C7.0725 13.16 6.0825 13.82 5.0625 14.5 C4.36125 13.4275 3.66 12.355 2.9375 11.25 C0.39287839 7.65544856 -2.15116698 5.70135641 -5.9375 3.5 C-4.07508747 1.0167833 -3.11861649 0.53082834 0 0 Z " fill="#FE0202" transform="translate(194.9375,200.5)"/>
<path d="M0 0 C3.0625 0.5 3.0625 0.5 5.375 2.5625 C7.31415093 5.93805902 7.76013318 8.64482309 8.0625 12.5 C7.0725 13.16 6.0825 13.82 5.0625 14.5 C4.36125 13.4275 3.66 12.355 2.9375 11.25 C0.39287839 7.65544856 -2.15116698 5.70135641 -5.9375 3.5 C-4.07508747 1.0167833 -3.11861649 0.53082834 0 0 Z " fill="#FE0202" transform="translate(194.9375,72.5)"/>
<path d="M0 0 C0.66 0.33 1.32 0.66 2 1 C0.62714844 2.35544922 0.62714844 2.35544922 -0.7734375 3.73828125 C-1.97409058 4.92955423 -3.17460415 6.12096783 -4.375 7.3125 C-4.97828125 7.90740234 -5.5815625 8.50230469 -6.203125 9.11523438 C-6.78320312 9.69208984 -7.36328125 10.26894531 -7.9609375 10.86328125 C-8.49509277 11.39219971 -9.02924805 11.92111816 -9.57958984 12.46606445 C-12.54186079 15.66509305 -13.726398 18.9062793 -15 23 C-15.66 23 -16.32 23 -17 23 C-17 21.02 -17 19.04 -17 17 C-17.66 16.67 -18.32 16.34 -19 16 C-18.46890625 15.55269531 -17.9378125 15.10539063 -17.390625 14.64453125 C-12.86066413 10.77462229 -12.86066413 10.77462229 -8.9375 6.3125 C-6.29461179 3.15808504 -3.70661436 1.78466618 0 0 Z " fill="#750000" transform="translate(80,189)"/>
<path d="M0 0 C4.29574113 0.25269065 6.47518229 0.5568206 9.8125 3.375 C12 6 12 6 14 9 C12.453125 10.2109375 12.453125 10.2109375 10 11 C7.39484836 9.99212459 5.17152464 8.96372907 2.75 7.625 C2.1003125 7.28210938 1.450625 6.93921875 0.78125 6.5859375 C-0.82010131 5.73816328 -2.41111444 4.87091321 -4 4 C-3.67 3.34 -3.34 2.68 -3 2 C-1.68 2.66 -0.36 3.32 1 4 C0.67 2.68 0.34 1.36 0 0 Z " fill="#F20B0B" transform="translate(230,191)"/>
<path d="M0 0 C4.29574113 0.25269065 6.47518229 0.5568206 9.8125 3.375 C12 6 12 6 14 9 C12.453125 10.2109375 12.453125 10.2109375 10 11 C7.39484836 9.99212459 5.17152464 8.96372907 2.75 7.625 C2.1003125 7.28210938 1.450625 6.93921875 0.78125 6.5859375 C-0.82010131 5.73816328 -2.41111444 4.87091321 -4 4 C-3.67 3.34 -3.34 2.68 -3 2 C-1.68 2.66 -0.36 3.32 1 4 C0.67 2.68 0.34 1.36 0 0 Z " fill="#DD0C10" transform="translate(102,191)"/>
<path d="M0 0 C4.29574113 0.25269065 6.47518229 0.5568206 9.8125 3.375 C12 6 12 6 14 9 C12.453125 10.2109375 12.453125 10.2109375 10 11 C7.39484836 9.99212459 5.17152464 8.96372907 2.75 7.625 C2.1003125 7.28210938 1.450625 6.93921875 0.78125 6.5859375 C-0.82010131 5.73816328 -2.41111444 4.87091321 -4 4 C-3.67 3.34 -3.34 2.68 -3 2 C-1.68 2.66 -0.36 3.32 1 4 C0.67 2.68 0.34 1.36 0 0 Z " fill="#DD0C10" transform="translate(102,64)"/>
<path d="M0 0 C4.29574113 0.25269065 6.47518229 0.5568206 9.8125 3.375 C12 6 12 6 14 9 C12.453125 10.2109375 12.453125 10.2109375 10 11 C7.39484836 9.99212459 5.17152464 8.96372907 2.75 7.625 C2.1003125 7.28210938 1.450625 6.93921875 0.78125 6.5859375 C-0.82010131 5.73816328 -2.41111444 4.87091321 -4 4 C-3.67 3.34 -3.34 2.68 -3 2 C-1.68 2.66 -0.36 3.32 1 4 C0.67 2.68 0.34 1.36 0 0 Z " fill="#F20B0B" transform="translate(230,63)"/>
<path d="M0 0 C2.97 0 5.94 0 9 0 C9 0.66 9 1.32 9 2 C9.63808594 2.06058594 10.27617187 2.12117187 10.93359375 2.18359375 C11.75988281 2.26738281 12.58617187 2.35117188 13.4375 2.4375 C14.67306641 2.55931641 14.67306641 2.55931641 15.93359375 2.68359375 C18 3 18 3 19 4 C21.28917881 4.20159109 23.57562063 4.31892937 25.87109375 4.42578125 C28 5 28 5 29.28515625 7.04296875 C29.52105469 7.68878906 29.75695312 8.33460938 30 9 C31.65 9 33.3 9 35 9 C34.34 10.98 33.68 12.96 33 15 C29.7169902 13.3584951 28.72962081 10.17097149 27 7 C23.65747276 6.92572162 21.1964086 6.93453047 18 8 C18 7.34 18 6.68 18 6 C15.69 6.66 13.38 7.32 11 8 C11.33 6.35 11.66 4.7 12 3 C8.04 3 4.08 3 0 3 C0 2.01 0 1.02 0 0 Z " fill="#4A0000" transform="translate(171,195)"/>
<path d="M0 0 C0.8353125 0.37125 0.8353125 0.37125 1.6875 0.75 C2.0175 2.07 2.3475 3.39 2.6875 4.75 C1.3675 4.42 0.0475 4.09 -1.3125 3.75 C1.474665 5.60811 4.15053 6.97897347 7.1875 8.375 C8.1465625 8.82101563 9.105625 9.26703125 10.09375 9.7265625 C12.68787577 10.93351947 12.68787577 10.93351947 15.6875 10.75 C13.6875 12.75 13.6875 12.75 10.875 13.125 C6.95750366 12.66411808 5.65182747 11.26967835 2.6875 8.75 C0.70393517 8.03591666 -1.29565437 7.36382258 -3.3125 6.75 C-4.3025 6.09 -5.2925 5.43 -6.3125 4.75 C-6.6425 5.41 -6.9725 6.07 -7.3125 6.75 C-7.3125 5.76 -7.3125 4.77 -7.3125 3.75 C-3.21493902 -0.34756098 -3.21493902 -0.34756098 0 0 Z " fill="#890000" transform="translate(100.3125,190.25)"/>
<path d="M0 0 C0 0.66 0 1.32 0 2 C-0.55945313 2.268125 -1.11890625 2.53625 -1.6953125 2.8125 C-5.03924427 4.53547501 -8.18153257 6.56522418 -11.3671875 8.5625 C-16.86979404 11.56689051 -21.67206645 12.28127546 -27.875 12.125 C-28.56335938 12.11597656 -29.25171875 12.10695312 -29.9609375 12.09765625 C-31.64077838 12.07432513 -33.32043746 12.03846326 -35 12 C-35 11.67 -35 11.34 -35 11 C-30.38 11 -25.76 11 -21 11 C-21 10.34 -21 9.68 -21 9 C-14.5 6 -14.5 6 -10 6 C-10 5.34 -10 4.68 -10 4 C-6.32547562 1.1605948 -4.73113419 0 0 0 Z " fill="#890000" transform="translate(189,201)"/>
<path d="M0 0 C0 0.66 0 1.32 0 2 C-0.55945313 2.268125 -1.11890625 2.53625 -1.6953125 2.8125 C-5.03924427 4.53547501 -8.18153257 6.56522418 -11.3671875 8.5625 C-16.86979404 11.56689051 -21.67206645 12.28127546 -27.875 12.125 C-28.56335938 12.11597656 -29.25171875 12.10695313 -29.9609375 12.09765625 C-31.64077838 12.07432513 -33.32043746 12.03846326 -35 12 C-35 11.67 -35 11.34 -35 11 C-30.38 11 -25.76 11 -21 11 C-21 10.34 -21 9.68 -21 9 C-14.5 6 -14.5 6 -10 6 C-10 5.34 -10 4.68 -10 4 C-6.32547562 1.1605948 -4.73113419 0 0 0 Z " fill="#890000" transform="translate(189,73)"/>
<path d="M0 0 C1.20366211 0.00483398 1.20366211 0.00483398 2.43164062 0.00976562 C3.68170898 0.02233398 3.68170898 0.02233398 4.95703125 0.03515625 C6.22450195 0.04192383 6.22450195 0.04192383 7.51757812 0.04882812 C9.6015928 0.06060222 11.68557102 0.07853735 13.76953125 0.09765625 C13.76953125 0.42765625 13.76953125 0.75765625 13.76953125 1.09765625 C12.65835938 1.13503906 11.5471875 1.17242187 10.40234375 1.2109375 C2.14199621 1.55353256 -5.4374226 2.05319842 -13.23046875 5.09765625 C-12.57046875 6.74765625 -11.91046875 8.39765625 -11.23046875 10.09765625 C-13.21046875 10.42765625 -15.19046875 10.75765625 -17.23046875 11.09765625 C-16.90046875 10.43765625 -16.57046875 9.77765625 -16.23046875 9.09765625 C-18.54046875 9.09765625 -20.85046875 9.09765625 -23.23046875 9.09765625 C-18.623233 4.6492907 -13.18000307 3.05934481 -7.23046875 1.09765625 C-4.46481493 0.17577164 -2.84763173 -0.02019597 0 0 Z " fill="#050000" transform="translate(190.23046875,169.90234375)"/>
<path d="M0 0 C1.20366211 0.00483398 1.20366211 0.00483398 2.43164062 0.00976562 C3.68170898 0.02233398 3.68170898 0.02233398 4.95703125 0.03515625 C6.22450195 0.04192383 6.22450195 0.04192383 7.51757812 0.04882812 C9.6015928 0.06060222 11.68557102 0.07853735 13.76953125 0.09765625 C13.76953125 0.42765625 13.76953125 0.75765625 13.76953125 1.09765625 C12.65835938 1.13503906 11.5471875 1.17242187 10.40234375 1.2109375 C2.14199621 1.55353256 -5.4374226 2.05319842 -13.23046875 5.09765625 C-12.57046875 6.74765625 -11.91046875 8.39765625 -11.23046875 10.09765625 C-13.21046875 10.42765625 -15.19046875 10.75765625 -17.23046875 11.09765625 C-16.90046875 10.43765625 -16.57046875 9.77765625 -16.23046875 9.09765625 C-18.54046875 9.09765625 -20.85046875 9.09765625 -23.23046875 9.09765625 C-18.623233 4.6492907 -13.18000307 3.05934481 -7.23046875 1.09765625 C-4.46481493 0.17577164 -2.84763173 -0.02019597 0 0 Z " fill="#050000" transform="translate(190.23046875,41.90234375)"/>
<path d="M0 0 C1.25664978 2.90600261 2 4.79604584 2 8 C5.465 7.505 5.465 7.505 9 7 C9 7.66 9 8.32 9 9 C10.32 9.66 11.64 10.32 13 11 C8.38 11 3.76 11 -1 11 C-1.433125 9.906875 -1.86625 8.81375 -2.3125 7.6875 C-3.49495641 4.90591207 -4.60800043 2.93638061 -7 1 C-4.53721199 -0.231394 -2.7204945 -0.07159196 0 0 Z " fill="#5F0000" transform="translate(173,57)"/>
<path d="M0 0 C1.34006144 0.65303719 2.67462181 1.31765487 4 2 C-0.9422919 4.51449939 -5.8817659 6.86740246 -11 9 C-9.55333912 2.61058109 -9.55333912 2.61058109 -7.1875 0 C-4.3165308 -1.31244306 -2.97195406 -0.96588507 0 0 Z " fill="#250000" transform="translate(65,67)"/>
<path d="M0 0 C3.10652645 0.3358407 4.60414303 0.59049279 6.8125 2.875 C8 5 8 5 8 8 C2.70139194 6.7023817 -1.34525646 4.84984298 -6 2 C-6 1.67 -6 1.34 -6 1 C-4.02 1 -2.04 1 0 1 C0 0.67 0 0.34 0 0 Z " fill="#8F49F3" transform="translate(231,185)"/>
<path d="M0 0 C3.10652645 0.3358407 4.60414303 0.59049279 6.8125 2.875 C8 5 8 5 8 8 C2.70139194 6.7023817 -1.34525646 4.84984298 -6 2 C-6 1.67 -6 1.34 -6 1 C-4.02 1 -2.04 1 0 1 C0 0.67 0 0.34 0 0 Z " fill="#8F49F3" transform="translate(103,185)"/>
<path d="M0 0 C3.10652645 0.3358407 4.60414303 0.59049279 6.8125 2.875 C8 5 8 5 8 8 C2.70139194 6.7023817 -1.34525646 4.84984298 -6 2 C-6 1.67 -6 1.34 -6 1 C-4.02 1 -2.04 1 0 1 C0 0.67 0 0.34 0 0 Z " fill="#8F49F3" transform="translate(103,58)"/>
<path d="M0 0 C3.10652645 0.3358407 4.60414303 0.59049279 6.8125 2.875 C8 5 8 5 8 8 C2.70139194 6.7023817 -1.34525646 4.84984298 -6 2 C-6 1.67 -6 1.34 -6 1 C-4.02 1 -2.04 1 0 1 C0 0.67 0 0.34 0 0 Z " fill="#8F49F3" transform="translate(231,57)"/>
<path d="M0 0 C0 1.65 0 3.3 0 5 C-6.75 4.125 -6.75 4.125 -9 3 C-10.32 3 -11.64 3 -13 3 C-13 2.34 -13 1.68 -13 1 C-8.23947038 -0.97387813 -5.03511899 -1.0070238 0 0 Z " fill="#AB0859" transform="translate(98,208)"/>
<path d="M0 0 C0.80824219 0.33773437 1.61648437 0.67546875 2.44921875 1.0234375 C3.51785156 1.46945313 4.58648437 1.91546875 5.6875 2.375 C6.74324219 2.81585938 7.79898438 3.25671875 8.88671875 3.7109375 C9.91410156 4.13632813 10.94148437 4.56171875 12 5 C12.89332031 5.38414062 13.78664062 5.76828125 14.70703125 6.1640625 C17.06299076 7.171257 17.06299076 7.171257 20 7 C18 9 18 9 15.1875 9.375 C11.27000366 8.91411808 9.96432747 7.51967835 7 5 C5.9275 4.649375 4.855 4.29875 3.75 3.9375 C2.8425 3.628125 1.935 3.31875 1 3 C0.67 2.01 0.34 1.02 0 0 Z " fill="#870000" transform="translate(224,194)"/>
<path d="M0 0 C0.80824219 0.33773437 1.61648437 0.67546875 2.44921875 1.0234375 C3.51785156 1.46945313 4.58648437 1.91546875 5.6875 2.375 C6.74324219 2.81585938 7.79898438 3.25671875 8.88671875 3.7109375 C9.91410156 4.13632813 10.94148438 4.56171875 12 5 C12.89332031 5.38414063 13.78664063 5.76828125 14.70703125 6.1640625 C17.06299076 7.171257 17.06299076 7.171257 20 7 C18 9 18 9 15.1875 9.375 C11.27000366 8.91411808 9.96432747 7.51967835 7 5 C5.9275 4.649375 4.855 4.29875 3.75 3.9375 C2.8425 3.628125 1.935 3.31875 1 3 C0.67 2.01 0.34 1.02 0 0 Z " fill="#870000" transform="translate(96,67)"/>
<path d="M0 0 C0.80824219 0.33773437 1.61648437 0.67546875 2.44921875 1.0234375 C3.51785156 1.46945313 4.58648437 1.91546875 5.6875 2.375 C6.74324219 2.81585938 7.79898438 3.25671875 8.88671875 3.7109375 C9.91410156 4.13632813 10.94148437 4.56171875 12 5 C12.89332031 5.38414063 13.78664062 5.76828125 14.70703125 6.1640625 C17.06299076 7.171257 17.06299076 7.171257 20 7 C18 9 18 9 15.1875 9.375 C11.27000366 8.91411808 9.96432747 7.51967835 7 5 C5.9275 4.649375 4.855 4.29875 3.75 3.9375 C2.8425 3.628125 1.935 3.31875 1 3 C0.67 2.01 0.34 1.02 0 0 Z " fill="#870000" transform="translate(224,66)"/>
<path d="M0 0 C2.97 0 5.94 0 9 0 C9 0.66 9 1.32 9 2 C10.98 2 12.96 2 15 2 C15.33 2.99 15.66 3.98 16 5 C13.525 6.485 13.525 6.485 11 8 C11.33 6.35 11.66 4.7 12 3 C8.04 3 4.08 3 0 3 C0 2.01 0 1.02 0 0 Z " fill="#360000" transform="translate(171,195)"/>
<path d="M0 0 C1.98 0.495 1.98 0.495 4 1 C4 1.99 4 2.98 4 4 C4.61875 4.28875 5.2375 4.5775 5.875 4.875 C8 6 8 6 10 8 C9.67 8.99 9.34 9.98 9 11 C9 10.34 9 9.68 9 9 C7.63875 8.62875 7.63875 8.62875 6.25 8.25 C2.89648511 6.96018658 1.32291764 5.68028958 -1 3 C-0.67 2.01 -0.34 1.02 0 0 Z " fill="#FE3030" transform="translate(64,70)"/>
<path d="M0 0 C2.33944736 0.28730055 4.6739143 0.61936779 7 1 C7 2.65 7 4.3 7 6 C4.69 5.67 2.38 5.34 0 5 C-0.5625 3.0625 -0.5625 3.0625 -1 1 C-0.67 0.67 -0.34 0.34 0 0 Z " fill="#AD0A70" transform="translate(219,207)"/>
<path d="M0 0 C2.33944736 0.28730055 4.6739143 0.61936779 7 1 C7 2.65 7 4.3 7 6 C4.69 5.67 2.38 5.34 0 5 C-0.5625 3.0625 -0.5625 3.0625 -1 1 C-0.67 0.67 -0.34 0.34 0 0 Z " fill="#AE0A70" transform="translate(91,80)"/>
<path d="M0 0 C2.33944736 0.28730055 4.6739143 0.61936779 7 1 C7 2.65 7 4.3 7 6 C4.69 5.67 2.38 5.34 0 5 C-0.5625 3.0625 -0.5625 3.0625 -1 1 C-0.67 0.67 -0.34 0.34 0 0 Z " fill="#AD0A70" transform="translate(219,79)"/>
<path d="M0 0 C0.33 0 0.66 0 1 0 C1.125 2.375 1.125 2.375 1 5 C0.34 5.66 -0.32 6.32 -1 7 C-0.6814823 9.10820797 -0.6814823 9.10820797 0 11 C1.65 11.33 3.3 11.66 5 12 C4.67 12.66 4.34 13.32 4 14 C-1.75 13.25 -1.75 13.25 -4 11 C-3.65561395 6.86736741 -1.93570031 3.61891796 0 0 Z " fill="#A00000" transform="translate(85,70)"/>
<path d="M0 0 C-5.06699482 4.16217431 -9.34540028 4.14119546 -15.75 4.0625 C-16.44738281 4.05798828 -17.14476562 4.05347656 -17.86328125 4.04882812 C-19.57555803 4.0371002 -21.28779033 4.01916653 -23 4 C-23 3.67 -23 3.34 -23 3 C-18.38 3 -13.76 3 -9 3 C-9 2.34 -9 1.68 -9 1 C-5.8035914 -0.06546953 -3.34252724 -0.07427838 0 0 Z " fill="#880000" transform="translate(49,209)"/>
<path d="M0 0 C-5.06699482 4.16217431 -9.34540028 4.14119546 -15.75 4.0625 C-16.44738281 4.05798828 -17.14476562 4.05347656 -17.86328125 4.04882812 C-19.57555803 4.0371002 -21.28779033 4.01916653 -23 4 C-23 3.67 -23 3.34 -23 3 C-18.38 3 -13.76 3 -9 3 C-9 2.34 -9 1.68 -9 1 C-5.8035914 -0.06546953 -3.34252724 -0.07427838 0 0 Z " fill="#880000" transform="translate(49,82)"/>
<path d="M0 0 C0.99 0 1.98 0 3 0 C3 0.66 3 1.32 3 2 C4.11375 2.1546875 4.11375 2.1546875 5.25 2.3125 C8 3 8 3 12 6 C5.07 5.505 5.07 5.505 -2 5 C-1.67 4.34 -1.34 3.68 -1 3 C-0.34 3 0.32 3 1 3 C0.67 2.01 0.34 1.02 0 0 Z " fill="#4B0000" transform="translate(220,57)"/>
<path d="M0 0 C0.99 0 1.98 0 3 0 C3 0.66 3 1.32 3 2 C4.11375 2.1546875 4.11375 2.1546875 5.25 2.3125 C8 3 8 3 12 6 C5.07 5.505 5.07 5.505 -2 5 C-1.01 4.01 -0.02 3.02 1 2 C0.67 1.34 0.34 0.68 0 0 Z " fill="#4B0000" transform="translate(220,185)"/>
<path d="M0 0 C0.99 0.33 1.98 0.66 3 1 C2.2575 1.5775 1.515 2.155 0.75 2.75 C-1.66087643 4.72253526 -3.84042701 6.76044282 -6 9 C-6.66 8.67 -7.32 8.34 -8 8 C-5.6166139 4.85052551 -3.44915025 2.0027324 0 0 Z " fill="#8B0000" transform="translate(59,199)"/>
<path d="M0 0 C3.10652645 0.3358407 4.60414303 0.59049279 6.8125 2.875 C8 5 8 5 8 8 C7.34 8 6.68 8 6 8 C3.78578579 5.43981482 1.87799375 2.81699062 0 0 Z " fill="#6C13EE" transform="translate(231,185)"/>
<path d="M0 0 C3.10652645 0.3358407 4.60414303 0.59049279 6.8125 2.875 C8 5 8 5 8 8 C7.34 8 6.68 8 6 8 C3.78578579 5.43981482 1.87799375 2.81699062 0 0 Z " fill="#6C13EE" transform="translate(103,185)"/>
<path d="M0 0 C3.10652645 0.3358407 4.60414303 0.59049279 6.8125 2.875 C8 5 8 5 8 8 C7.34 8 6.68 8 6 8 C3.78578579 5.43981482 1.87799375 2.81699062 0 0 Z " fill="#6C13EE" transform="translate(103,58)"/>
<path d="M0 0 C3.10652645 0.3358407 4.60414303 0.59049279 6.8125 2.875 C8 5 8 5 8 8 C7.34 8 6.68 8 6 8 C3.78578579 5.43981482 1.87799375 2.81699062 0 0 Z " fill="#6C13EE" transform="translate(231,57)"/>
<path d="M0 0 C1.4540625 0.0309375 1.4540625 0.0309375 2.9375 0.0625 C2.009375 0.4028125 2.009375 0.4028125 1.0625 0.75 C-1.67660209 2.44179835 -2.11274472 4.05494161 -3.0625 7.0625 C-4.0525 6.4025 -5.0425 5.7425 -6.0625 5.0625 C-3.64893617 0.07446809 -3.64893617 0.07446809 0 0 Z " fill="#C00606" transform="translate(184.0625,210.9375)"/>
<path d="M0 0 C1.4540625 0.0309375 1.4540625 0.0309375 2.9375 0.0625 C2.009375 0.4028125 2.009375 0.4028125 1.0625 0.75 C-1.67660209 2.44179835 -2.11274472 4.05494161 -3.0625 7.0625 C-4.0525 6.4025 -5.0425 5.7425 -6.0625 5.0625 C-3.64893617 0.07446809 -3.64893617 0.07446809 0 0 Z " fill="#C00606" transform="translate(56.0625,210.9375)"/>
<path d="M0 0 C1.4540625 0.0309375 1.4540625 0.0309375 2.9375 0.0625 C2.009375 0.4028125 2.009375 0.4028125 1.0625 0.75 C-1.67660209 2.44179835 -2.11274472 4.05494161 -3.0625 7.0625 C-4.0525 6.4025 -5.0425 5.7425 -6.0625 5.0625 C-3.64893617 0.07446809 -3.64893617 0.07446809 0 0 Z " fill="#C00606" transform="translate(56.0625,83.9375)"/>
<path d="M0 0 C1.4540625 0.0309375 1.4540625 0.0309375 2.9375 0.0625 C2.009375 0.4028125 2.009375 0.4028125 1.0625 0.75 C-1.67660209 2.44179835 -2.11274472 4.05494161 -3.0625 7.0625 C-4.0525 6.4025 -5.0425 5.7425 -6.0625 5.0625 C-3.64893617 0.07446809 -3.64893617 0.07446809 0 0 Z " fill="#C00606" transform="translate(184.0625,82.9375)"/>
<path d="M0 0 C3.64991166 1.31802365 5.7895201 2.59214008 9 5 C5.7 4.67 2.4 4.34 -1 4 C-0.67 2.68 -0.34 1.36 0 0 Z " fill="#500000" transform="translate(188,208)"/>
<path d="M0 0 C1.9375 1.375 1.9375 1.375 2.6875 4 C2.77 4.78375 2.8525 5.5675 2.9375 6.375 C1.2875 5.055 -0.3625 3.735 -2.0625 2.375 C-3.0525 3.365 -4.0425 4.355 -5.0625 5.375 C-4.6875 2.9375 -4.6875 2.9375 -4.0625 0.375 C-2.0625 -0.625 -2.0625 -0.625 0 0 Z " fill="#FE3030" transform="translate(219.0625,194.625)"/>
<path d="M0 0 C3.64991166 1.31802365 5.7895201 2.59214008 9 5 C5.7 4.67 2.4 4.34 -1 4 C-0.67 2.68 -0.34 1.36 0 0 Z " fill="#500000" transform="translate(60,81)"/>
<path d="M0 0 C3.64991166 1.31802365 5.7895201 2.59214008 9 5 C5.7 4.67 2.4 4.34 -1 4 C-0.67 2.68 -0.34 1.36 0 0 Z " fill="#500000" transform="translate(188,80)"/>
<path d="M0 0 C1.9375 1.375 1.9375 1.375 2.6875 4 C2.77 4.78375 2.8525 5.5675 2.9375 6.375 C1.2875 5.055 -0.3625 3.735 -2.0625 2.375 C-3.0525 3.365 -4.0425 4.355 -5.0625 5.375 C-4.6875 2.9375 -4.6875 2.9375 -4.0625 0.375 C-2.0625 -0.625 -2.0625 -0.625 0 0 Z " fill="#FE3030" transform="translate(91.0625,67.625)"/>
<path d="M0 0 C1.9375 1.375 1.9375 1.375 2.6875 4 C2.77 4.78375 2.8525 5.5675 2.9375 6.375 C1.2875 5.055 -0.3625 3.735 -2.0625 2.375 C-3.0525 3.365 -4.0425 4.355 -5.0625 5.375 C-4.6875 2.9375 -4.6875 2.9375 -4.0625 0.375 C-2.0625 -0.625 -2.0625 -0.625 0 0 Z " fill="#FE3030" transform="translate(219.0625,66.625)"/>
<path d="M0 0 C0.33 0.66 0.66 1.32 1 2 C1.99 2.33 2.98 2.66 4 3 C0.73454239 4.88391785 -2.28111761 5.49287967 -6 6 C-4 4 -2 2 0 0 Z " fill="#500000" transform="translate(89,57)"/>
<path d="M0 0 C2.97 0.99 5.94 1.98 9 3 C9 3.66 9 4.32 9 5 C6.1875 5.3125 6.1875 5.3125 3 5 C1.125 2.5 1.125 2.5 0 0 Z " fill="#6D0000" transform="translate(144,207)"/>
<path d="M0 0 C2.97 0.99 5.94 1.98 9 3 C9 3.66 9 4.32 9 5 C6.1875 5.3125 6.1875 5.3125 3 5 C1.125 2.5 1.125 2.5 0 0 Z " fill="#6D0000" transform="translate(16,207)"/>
<path d="M0 0 C2.5393228 3.41831915 3.3636198 5.75776898 3 10 C2.34 9.01 1.68 8.02 1 7 C0.13824802 5.92672708 -0.7369604 4.86412584 -1.625 3.8125 C-2.40875 2.884375 -3.1925 1.95625 -4 1 C-2 0 -2 0 0 0 Z " fill="#470000" transform="translate(170,185)"/>
<path d="M0 0 C2.97 0.99 5.94 1.98 9 3 C9 3.66 9 4.32 9 5 C6.1875 5.3125 6.1875 5.3125 3 5 C1.125 2.5 1.125 2.5 0 0 Z " fill="#6D0000" transform="translate(16,80)"/>
<path d="M0 0 C2.97 0.99 5.94 1.98 9 3 C9 3.66 9 4.32 9 5 C6.1875 5.3125 6.1875 5.3125 3 5 C1.125 2.5 1.125 2.5 0 0 Z " fill="#6D0000" transform="translate(144,79)"/>
<path d="M0 0 C2.5393228 3.41831915 3.3636198 5.75776898 3 10 C2.34 9.01 1.68 8.02 1 7 C0.13824802 5.92672708 -0.7369604 4.86412584 -1.625 3.8125 C-2.40875 2.884375 -3.1925 1.95625 -4 1 C-2 0 -2 0 0 0 Z " fill="#470000" transform="translate(170,57)"/>
<path d="M0 0 C2.3125 -0.3125 2.3125 -0.3125 5 0 C6.8125 2.5 6.8125 2.5 8 5 C2.25 3.375 2.25 3.375 0 0 Z " fill="#FE3030" transform="translate(193,201)"/>
<path d="M0 0 C2.31 0 4.62 0 7 0 C7.33 0.66 7.66 1.32 8 2 C6.25 3.125 6.25 3.125 4 4 C1.75 3.125 1.75 3.125 0 2 C0 1.34 0 0.68 0 0 Z " fill="#FF0505" transform="translate(236,198)"/>
<path d="M0 0 C2.31 0 4.62 0 7 0 C7.33 0.66 7.66 1.32 8 2 C6.25 3.125 6.25 3.125 4 4 C1.75 3.125 1.75 3.125 0 2 C0 1.34 0 0.68 0 0 Z " fill="#FE0504" transform="translate(108,198)"/>
<path d="M0 0 C0.33 0.99 0.66 1.98 1 3 C-0.65 4.32 -2.3 5.64 -4 7 C-4.66 6.67 -5.32 6.34 -6 6 C-2.25 1.125 -2.25 1.125 0 0 Z " fill="#7E0000" transform="translate(57,74)"/>
<path d="M0 0 C2.3125 -0.3125 2.3125 -0.3125 5 0 C6.8125 2.5 6.8125 2.5 8 5 C2.25 3.375 2.25 3.375 0 0 Z " fill="#FE3030" transform="translate(193,73)"/>
<path d="M0 0 C2.31 0 4.62 0 7 0 C7.33 0.66 7.66 1.32 8 2 C6.25 3.125 6.25 3.125 4 4 C1.75 3.125 1.75 3.125 0 2 C0 1.34 0 0.68 0 0 Z " fill="#FE0404" transform="translate(108,71)"/>
<path d="M0 0 C2.31 0 4.62 0 7 0 C7.33 0.66 7.66 1.32 8 2 C6.25 3.125 6.25 3.125 4 4 C1.75 3.125 1.75 3.125 0 2 C0 1.34 0 0.68 0 0 Z " fill="#FE0505" transform="translate(236,70)"/>
<path d="M0 0 C0.81210938 0.29003906 1.62421875 0.58007812 2.4609375 0.87890625 C3.27820313 1.16636719 4.09546875 1.45382813 4.9375 1.75 C5.56398438 1.97816406 6.19046875 2.20632812 6.8359375 2.44140625 C6.8359375 2.77140625 6.8359375 3.10140625 6.8359375 3.44140625 C5.5778125 3.31765625 4.3196875 3.19390625 3.0234375 3.06640625 C1.96189453 2.96199219 1.96189453 2.96199219 0.87890625 2.85546875 C-1.1640625 2.44140625 -1.1640625 2.44140625 -4.1640625 0.44140625 C-2.1640625 -0.55859375 -2.1640625 -0.55859375 0 0 Z " fill="#500000" transform="translate(97.1640625,60.55859375)"/>
<path d="M0 0 C2.475 0.495 2.475 0.495 5 1 C5.33 1.99 5.66 2.98 6 4 C4.35 4 2.7 4 1 4 C0.67 2.68 0.34 1.36 0 0 Z " fill="#A60E1F" transform="translate(236,194)"/>
<path d="M0 0 C3.46941546 0.45822468 6.67395049 0.89131683 10 2 C10.6875 4.0625 10.6875 4.0625 11 6 C10.484375 5.731875 9.96875 5.46375 9.4375 5.1875 C6.33598585 3.67650593 3.17737194 2.34427274 0 1 C0 0.67 0 0.34 0 0 Z " fill="#800000" transform="translate(220,189)"/>
<path d="M0 0 C2.475 0.495 2.475 0.495 5 1 C5.33 1.99 5.66 2.98 6 4 C4.35 4 2.7 4 1 4 C0.67 2.68 0.34 1.36 0 0 Z " fill="#A60F1F" transform="translate(236,66)"/>
<path d="M0 0 C3.46941546 0.45822468 6.67395049 0.89131683 10 2 C10.6875 4.0625 10.6875 4.0625 11 6 C10.484375 5.731875 9.96875 5.46375 9.4375 5.1875 C6.33598585 3.67650593 3.17737194 2.34427274 0 1 C0 0.67 0 0.34 0 0 Z " fill="#800000" transform="translate(220,61)"/>
<path d="" fill="#670100" transform="translate(0,0)"/>
<path d="" fill="#670000" transform="translate(0,0)"/>
<path d="" fill="#670000" transform="translate(0,0)"/>
<path d="" fill="#670000" transform="translate(0,0)"/>
</svg>
