<?xml version="1.0" encoding="UTF-8"?>
<svg version="1.1" xmlns="http://www.w3.org/2000/svg" width="64" height="64">
<path d="M0 0 C4.31314515 2.65424317 5.85387195 5.18660502 7.25 10 C7.92244854 13.51950888 8.13051399 16.50710014 7.25 20 C4.38224236 23.86795649 0.99440224 26.16275255 -3.75 27 C-10.50728516 27.6068719 -16.57001018 26.9035297 -22.75 24 C-23.41 23.34 -24.07 22.68 -24.75 22 C-25.36875 22.804375 -25.9875 23.60875 -26.625 24.4375 C-29.17554608 27.51315851 -29.82659617 27.90538404 -33.76171875 28.30859375 C-44.90726294 28.69945768 -44.90726294 28.69945768 -49.0625 25.1875 C-52.12844914 22.05976851 -52.91920118 19.0640487 -53.0625 14.75 C-52.99695501 9.71942174 -51.73785526 7.03764224 -48.75 3 C-44.7241199 -0.06223859 -41.68711971 -0.38201343 -36.6875 -0.3125 C-34.87572266 -0.30669922 -34.87572266 -0.30669922 -33.02734375 -0.30078125 C-29.95745753 -0.01903961 -28.24651583 0.24836535 -25.75 2 C-24 5.125 -24 5.125 -22.75 8 C-22.234375 7.071875 -21.71875 6.14375 -21.1875 5.1875 C-16.21303807 -2.19564876 -7.73110297 -2.06162746 0 0 Z " fill="#5ED7C3" transform="translate(55.75,36)"/>
<path d="M0 0 C4.13761597 2.74333736 7.11478822 6.41030217 9 11 C10.02504095 17.44822271 8.74924015 21.75106379 5 27 C0.1196162 30.2535892 -5.2901558 29.45348943 -11 29 C-15.21700986 27.97214785 -17.53013799 26.70479302 -20 23 C-20.53019649 16.84972073 -19.70392162 11.58881437 -17 6 C-11.99245167 0.1375044 -7.61183771 -1.41086379 0 0 Z " fill="#6DD8BC" transform="translate(21,3)"/>
<path d="M0 0 C4.6314797 2.53420588 8.31032562 4.93097685 10 10 C10.39764448 15.9646672 9.84887651 19.72430277 7 25 C2.04210532 28.30526312 -4.11888922 28.8119444 -10 28 C-14.45112478 26.41702957 -17.35030379 24.97454432 -20 21 C-20.71197529 16.19002739 -20.51041203 12.1271599 -18.5 7.6875 C-13.05868162 1.83808274 -8.07410656 -1.17204773 0 0 Z " fill="#76DDBB" transform="translate(53,4)"/>
<path d="M0 0 C2.8125 1.875 2.8125 1.875 5 4 C5 4.66 5 5.32 5 6 C5.31432217 7.71193325 5.65024669 9.41995264 6 11.125 C6.185625 12.03507812 6.37125 12.94515625 6.5625 13.8828125 C6.706875 14.58148438 6.85125 15.28015625 7 16 C7.66 13.36 8.32 10.72 9 8 C9.33 8 9.66 8 10 8 C9.75181647 14.27904325 9.45654578 19.1720754 5 24 C2.25 24.875 2.25 24.875 0 25 C0.825 24.401875 1.65 23.80375 2.5 23.1875 C3.325 22.465625 4.15 21.74375 5 21 C5 20.01 5 19.02 5 18 C4.319375 18.825 3.63875 19.65 2.9375 20.5 C0 23 0 23 -3.8125 23.3125 C-4.864375 23.209375 -5.91625 23.10625 -7 23 C-7 22.34 -7 21.68 -7 21 C-8.11375 20.731875 -9.2275 20.46375 -10.375 20.1875 C-14 19 -14 19 -16 16 C-16.78580272 9.04003302 -16.78580272 9.04003302 -13.875 5.1875 C-9.59339629 1.92975805 -5.55968743 -0.99789262 0 0 Z " fill="#AEE5A3" transform="translate(21,38)"/>
<path d="M0 0 C3.57863458 2.34928349 6.41377884 5.08389427 7.68359375 9.234375 C7.78800781 9.81703125 7.89242188 10.3996875 8 11 C7.01 11 6.02 11 5 11 C4.608125 10.360625 4.21625 9.72125 3.8125 9.0625 C1.38369753 6.29869029 -0.49598392 6.23344433 -4.06640625 5.96484375 C-6.59771226 6.0108675 -8.02108838 6.40164831 -10 8 C-12.78630555 11.62219721 -12.28111455 15.64272447 -12 20 C-9.48987037 22.51012963 -8.53194763 22.29721609 -5.0625 22.3125 C-4.18722656 22.32925781 -3.31195313 22.34601562 -2.41015625 22.36328125 C0.04346755 22.18304726 0.04346755 22.18304726 1.82421875 20.671875 C3.30775776 18.92251602 3.30775776 18.92251602 2.875 15.9375 C2.25349587 12.70744585 2.25349587 12.70744585 -1 11 C-2.65549531 10.61500109 -4.3222433 10.27206865 -6 10 C-6 9.67 -6 9.34 -6 9 C-2.0239197 8.53766508 -0.43148796 8.69045429 2.875 11.0625 C5.47048413 14.65037512 5.4247346 16.6677071 5 21 C5.66 20.34 6.32 19.68 7 19 C6.68330494 21.85025556 5.75970952 23.35242604 4.125 25.75 C-0.47145098 29.0594447 -4.50907744 28.73055193 -10 28 C-14.15977527 26.89910033 -16.54480351 25.68279473 -19 22 C-19.37445251 15.19744614 -17.52648842 7.82150469 -14 2 C-9.77473234 -0.86778805 -4.89669992 -0.9988667 0 0 Z " fill="#91E4B3" transform="translate(21,3)"/>
<path d="M0 0 C0 0.99 0 1.98 0 3 C2.64 3.33 5.28 3.66 8 4 C8.144375 4.639375 8.28875 5.27875 8.4375 5.9375 C8.81007181 7.97545146 8.81007181 7.97545146 10 9 C10.36759816 12.89654046 10.57929325 15.16324309 8.3125 18.4375 C5.61589191 20.25953249 4.18873549 20.35430394 1 20 C1.99 19.34 2.98 18.68 4 18 C3.360625 17.7525 2.72125 17.505 2.0625 17.25 C0 16 0 16 -0.75 13.875 C-0.8325 13.25625 -0.915 12.6375 -1 12 C-1.15811388 15.05270463 -1.15811388 15.05270463 0 18 C-0.33 18.33 -0.66 18.66 -1 19 C-0.01 19.99 0.98 20.98 2 22 C-1.20299909 23.06287862 -2.98952451 22.96603992 -6.125 21.75 C-6.80820312 21.49734375 -7.49140625 21.2446875 -8.1953125 20.984375 C-10 20 -10 20 -12 17 C-12.4673854 12.24824843 -12.4911613 9.96413144 -10.3125 5.6875 C-7.20790629 2.07945867 -4.85202494 0 0 0 Z " fill="#64D2BB" transform="translate(46,38)"/>
<path d="M0 0 C2.85861782 1.67333726 3.68383029 2.79712876 4.51953125 5.9765625 C4.875 8.125 4.875 8.125 5 12 C4.34 12.66 3.68 13.32 3 14 C2.34 12.68 1.68 11.36 1 10 C0.71125 10.78375 0.4225 11.5675 0.125 12.375 C-1 15 -1 15 -3 17 C-5.05859375 17.23046875 -5.05859375 17.23046875 -7.4375 17.1875 C-8.21996094 17.18105469 -9.00242187 17.17460937 -9.80859375 17.16796875 C-12 17 -12 17 -15 16 C-16.53214888 12.93570224 -16.22938548 10.3834358 -16 7 C-12.55039649 -0.39200753 -7.50699043 -0.95991025 0 0 Z " fill="#51CEC2" transform="translate(56,8)"/>
<path d="M0 0 C3.08810106 2.7542523 3.91523454 4.46315207 4.5625 8.5625 C4 12 4 12 1.9375 14.4375 C-2.25833336 16.66932625 -5.37232052 16.58392877 -9.96875 15.5625 C-11.875 14.9375 -11.875 14.9375 -15 13 C-15.9375 9.3125 -15.9375 9.3125 -16 6 C-15.34 5.67 -14.68 5.34 -14 5 C-14 5.99 -14 6.98 -14 8 C-13.34 7.34 -12.68 6.68 -12 6 C-11.34 8.31 -10.68 10.62 -10 13 C-4.28662627 13.59236584 -4.28662627 13.59236584 0.5 11 C0.995 10.34 1.49 9.68 2 9 C1.34 7.35 0.68 5.7 0 4 C-2.31 4.33 -4.62 4.66 -7 5 C-7 5.33 -7 5.66 -7 6 C-5.02 5.34 -3.04 4.68 -1 4 C-0.34 4.66 0.32 5.32 1 6 C0.8125 8.5 0.8125 8.5 0 11 C-3.45029042 13.30019361 -4.94554358 13.43132515 -9 13 C-11 10 -11 10 -10.9375 7.0625 C-9.3447546 1.85953171 -5.53727275 -1.27783217 0 0 Z " fill="#4DD2C7" transform="translate(22,42)"/>
<path d="M0 0 C1.25425781 0.02707031 2.50851563 0.05414063 3.80078125 0.08203125 C4.75339844 0.11683594 5.70601562 0.15164062 6.6875 0.1875 C7.0175 0.8475 7.3475 1.5075 7.6875 2.1875 C6.9140625 2.10628906 6.140625 2.02507813 5.34375 1.94140625 C-1.02902111 1.48983849 -1.02902111 1.48983849 -6.85546875 3.7109375 C-8.80597259 5.45182435 -10.59150174 7.22131843 -12.3125 9.1875 C-12.6425 9.5175 -12.9725 9.8475 -13.3125 10.1875 C-13.82237721 15.3590846 -13.82237721 15.3590846 -12.1875 20.0625 C-9.67904324 21.56757406 -7.11402563 22.37817037 -4.3125 23.1875 C-4.3125 23.5175 -4.3125 23.8475 -4.3125 24.1875 C-2.3325 24.5175 -0.3525 24.8475 1.6875 25.1875 C2.0175 24.1975 2.3475 23.2075 2.6875 22.1875 C5.25 20.5 5.25 20.5 7.6875 19.1875 C8.0175 19.8475 8.3475 20.5075 8.6875 21.1875 C5.80343757 24.59593742 4.3166735 26.05341384 -0.125 27 C-1.7028125 27.0928125 -1.7028125 27.0928125 -3.3125 27.1875 C-3.3125 27.5175 -3.3125 27.8475 -3.3125 28.1875 C-6.10666394 28.69552981 -7.78603726 28.53662792 -10.16796875 26.95703125 C-13.77195843 23.94751409 -15.97144655 22.07247673 -16.55078125 17.171875 C-16.74707606 11.26236799 -15.85090666 7.96913063 -12.3125 3.1875 C-8.20686051 0.0276239 -5.10547069 -0.14314404 0 0 Z " fill="#4CD2C8" transform="translate(19.3125,35.8125)"/>
<path d="M0 0 C3.72362606 2.79271955 5.84515503 5.48560601 7 10 C7.14562459 12.6915441 7.09152233 15.30009134 7 18 C6.67 18 6.34 18 6 18 C6 15.69 6 13.38 6 11 C5.34 11 4.68 11 4 11 C4.103125 11.9075 4.20625 12.815 4.3125 13.75 C4 17 4 17 1.5 19.375 C0.675 19.91125 -0.15 20.4475 -1 21 C-1.66 20.67 -2.32 20.34 -3 20 C-2.2575 19.4740625 -2.2575 19.4740625 -1.5 18.9375 C0.73063966 16.05625711 0.19980621 13.52990974 0 10 C-2.31 9.34 -4.62 8.68 -7 8 C-7 7.67 -7 7.34 -7 7 C-5.02 6.67 -3.04 6.34 -1 6 C-4.63 5.67 -8.26 5.34 -12 5 C-11.01 3.68 -10.02 2.36 -9 1 C-9.55429687 1.27714844 -10.10859375 1.55429687 -10.6796875 1.83984375 C-13.453125 3.2265625 -16.2265625 4.61328125 -19 6 C-17.99782403 2.77076632 -16.94375261 1.9660172 -14 0.1875 C-9.32349877 -1.58330904 -4.77510549 -1.32731746 0 0 Z " fill="#AAE7A7" transform="translate(55,37)"/>
<path d="M0 0 C4.31314515 2.65424317 5.85387195 5.18660502 7.25 10 C7.92244854 13.51950888 8.13051399 16.50710014 7.25 20 C4.39077592 23.85644664 0.99077037 26.18755159 -3.75 27 C-8.80454098 27.27943804 -13.83014404 27.31196159 -18.75 26 C-18.75 25.34 -18.75 24.68 -18.75 24 C-14.46 24.33 -10.17 24.66 -5.75 25 C-6.08 24.34 -6.41 23.68 -6.75 23 C-5.780625 22.525625 -4.81125 22.05125 -3.8125 21.5625 C-0.94522563 20.29806053 -0.94522563 20.29806053 0.25 19 C0.61760731 16.67182036 0.95241581 14.3381615 1.25 12 C2.57 11.67 3.89 11.34 5.25 11 C3.79998531 6.47936596 3.19507937 4.60485079 -0.875 2 C-6.2549732 0.15348377 -11.57633517 0.96042117 -16.625 3.375 C-18.50466637 4.81239193 -20.16378266 6.24681241 -21.75 8 C-21.13879059 5.24955765 -20.4047988 3.49031585 -18.1171875 1.77734375 C-11.81458193 -1.67055224 -6.98625541 -1.86300144 0 0 Z " fill="#4DD2C8" transform="translate(55.75,36)"/>
<path d="M0 0 C3.69968311 0.13453393 6.12262434 0.25971428 9 2.6875 C10.37236288 5.86108915 9.99557514 7.72882454 9 11 C5.78169935 13.14553377 4.73213493 13.29583868 1 13.3125 C-0.299375 13.33763672 -0.299375 13.33763672 -1.625 13.36328125 C-4 13 -4 13 -5.80078125 11.6484375 C-7.44296324 9.3911059 -7.22062714 7.72106805 -7 5 C-5 8 -5 8 -5 10 C-4.01 9.67 -3.02 9.34 -2 9 C-1.175 9.185625 -0.35 9.37125 0.5 9.5625 C3.2399734 10.33822518 3.2399734 10.33822518 6 8 C6 7.67 6 7.34 6 7 C4.68 7.99 3.36 8.98 2 10 C0.68 9.34 -0.64 8.68 -2 8 C-2.125 5.125 -2.125 5.125 -2 2 C-1.34 1.34 -0.68 0.68 0 0 Z " fill="#52CDC0" transform="translate(15,13)"/>
<path d="M0 0 C1.44086665 0.22980329 2.87982696 0.47367732 4.3125 0.75 C4.3125 1.74 4.3125 2.73 4.3125 3.75 C3.3225 3.42 2.3325 3.09 1.3125 2.75 C1.828125 3.141875 2.34375 3.53375 2.875 3.9375 C4.3125 5.75 4.3125 5.75 4.0625 8.375 C3.3125 10.75 3.3125 10.75 2.3125 11.75 C-3.42361111 12.02314815 -3.42361111 12.02314815 -5.6875 11.75 C-7.6875 9.75 -7.6875 9.75 -8 6.875 C-7.6875 3.75 -7.6875 3.75 -6.75 1.3125 C-4.15097592 -0.65645764 -3.17497761 -0.34445512 0 0 Z " fill="#9BE2AB" transform="translate(50.6875,11.25)"/>
<path d="M0 0 C2.375 0.4375 2.375 0.4375 4.375 2.4375 C4.81162786 6.3671507 4.97251439 8.57442366 2.6875 11.875 C-0.00910809 13.69703249 -1.43626451 13.79180394 -4.625 13.4375 C-3.635 12.7775 -2.645 12.1175 -1.625 11.4375 C-2.264375 11.19 -2.90375 10.9425 -3.5625 10.6875 C-5.625 9.4375 -5.625 9.4375 -6.625 7.625 C-6.625 5.4375 -6.625 5.4375 -5 2.6875 C-2.625 0.4375 -2.625 0.4375 0 0 Z " fill="#60BFAC" transform="translate(51.625,44.5625)"/>
<path d="M0 0 C0.33 0.66 0.66 1.32 1 2 C0.67 2.66 0.34 3.32 0 4 C-0.46588282 9.88165736 -0.46588282 9.88165736 2 15 C4.41607417 15.79798218 4.41607417 15.79798218 7.125 16.1875 C8.49011719 16.42533203 8.49011719 16.42533203 9.8828125 16.66796875 C10.58148438 16.77753906 11.28015625 16.88710938 12 17 C10.68 16.34 9.36 15.68 8 15 C8.33 14.01 8.66 13.02 9 12 C9 11.34 9 10.68 9 10 C9.375 6.9375 9.375 6.9375 10 4 C10.66 3.67 11.32 3.34 12 3 C11.79375 3.928125 11.5875 4.85625 11.375 5.8125 C10.63307034 9.15173402 10.63307034 9.15173402 13 12 C13.66 12 14.32 12 15 12 C15.33 9.69 15.66 7.38 16 5 C16.33 5 16.66 5 17 5 C17 8.66666667 17 12.33333333 17 16 C17.33 16.66 17.66 17.32 18 18 C12.14134184 19.95288605 7.31869776 19.03582294 1.69921875 16.94921875 C0 16 0 16 -2 13 C-2.265625 10.625 -2.265625 10.625 -2.25 8 C-2.25515625 7.13375 -2.2603125 6.2675 -2.265625 5.375 C-2 3 -2 3 0 0 Z " fill="#DDF093" transform="translate(35,43)"/>
<path d="M0 0 C3.28472596 1.26747578 3.95966737 1.93950106 6 5 C6.21993456 9.54531422 6.10852275 13.56590901 5 18 C4.34 17.67 3.68 17.34 3 17 C2.40234375 14.8203125 2.40234375 14.8203125 1.9375 12.125 C1.43729298 9.2891156 0.91310717 6.73932151 0 4 C-3.88013076 1.41324616 -5.52949754 2.20169599 -10 3 C-10.99 3 -11.98 3 -13 3 C-9.3245548 -0.83524716 -4.98393089 -0.67563852 0 0 Z " fill="#87E2B6" transform="translate(24,37)"/>
<path d="M0 0 C1.921875 0.6796875 1.921875 0.6796875 4 2 C4.828125 4.3828125 4.828125 4.3828125 5.25 7.125 C5.39953125 8.03507812 5.5490625 8.94515625 5.703125 9.8828125 C5.85007812 10.93082031 5.85007812 10.93082031 6 12 C6.66 9.36 7.32 6.72 8 4 C8.33 4 8.66 4 9 4 C8.75181647 10.27904325 8.45654578 15.1720754 4 20 C1.25 20.875 1.25 20.875 -1 21 C-0.175 20.401875 0.65 19.80375 1.5 19.1875 C2.325 18.465625 3.15 17.74375 4 17 C4 16.01 4 15.02 4 14 C3.319375 14.825 2.63875 15.65 1.9375 16.5 C-1 19 -1 19 -4.8125 19.3125 C-5.864375 19.209375 -6.91625 19.10625 -8 19 C-8 18.01 -8 17.02 -8 16 C-7.37351562 15.87882812 -6.74703125 15.75765625 -6.1015625 15.6328125 C-5.28429687 15.46523438 -4.46703125 15.29765625 -3.625 15.125 C-2.40683594 14.88136719 -2.40683594 14.88136719 -1.1640625 14.6328125 C1.18673923 14.13341068 1.18673923 14.13341068 3 12 C3.47325628 6.9834834 2.97071449 4.08473242 0 0 Z " fill="#E3F998" transform="translate(22,42)"/>
<path d="M0 0 C0.8971875 0.5259375 0.8971875 0.5259375 1.8125 1.0625 C1.5 3.4375 1.5 3.4375 0.8125 6.0625 C-2.6227048 8.35263653 -4.172831 8.24092973 -8.1875 8.0625 C-8.5175 6.7425 -8.8475 5.4225 -9.1875 4.0625 C-8.1975 3.7325 -7.2075 3.4025 -6.1875 3.0625 C-5.8575 2.0725 -5.5275 1.0825 -5.1875 0.0625 C-2.1875 -0.9375 -2.1875 -0.9375 0 0 Z " fill="#5FBFAD" transform="translate(21.1875,46.9375)"/>
<path d="M0 0 C0.66 0.33 1.32 0.66 2 1 C2 1.66 2 2.32 2 3 C2.97850195 4.02104551 3.97980427 5.0206121 5 6 C5.33 6.66 5.66 7.32 6 8 C8.30965848 9.05352843 10.6429774 10.05719096 13 11 C12.67 11.66 12.34 12.32 12 13 C10.39272673 12.77082032 8.78912584 12.51579198 7.1875 12.25 C6.29417969 12.11078125 5.40085937 11.9715625 4.48046875 11.828125 C1.4303946 10.80983253 0.50788699 9.81200547 -1 7 C-0.6875 3.25 -0.6875 3.25 0 0 Z " fill="#6BD1B6" transform="translate(35,48)"/>
<path d="M0 0 C-0.33 0.99 -0.66 1.98 -1 3 C-1.96679688 3.44472656 -1.96679688 3.44472656 -2.953125 3.8984375 C-5.18410742 4.84112665 -5.18410742 4.84112665 -6.046875 7.1640625 C-6.27890625 7.97617187 -6.5109375 8.78828125 -6.75 9.625 C-6.99234375 10.44226562 -7.2346875 11.25953125 -7.484375 12.1015625 C-7.65453125 12.72804688 -7.8246875 13.35453125 -8 14 C-10 13 -10 13 -11 10 C-11.33 11.32 -11.66 12.64 -12 14 C-11.58675744 8.7311573 -10.77055562 5.77055562 -7 2 C-4.31591712 0.29194726 -3.23830467 0 0 0 Z " fill="#52D4C7" transform="translate(46,38)"/>
<path d="M0 0 C6.41625207 0.36318408 6.41625207 0.36318408 9.0625 3.25 C10 6 10 6 9.3125 8.6875 C8 11 8 11 6 13 C3.94140625 13.265625 3.94140625 13.265625 1.5625 13.25 C0.38880859 13.25773437 0.38880859 13.25773437 -0.80859375 13.265625 C-3 13 -3 13 -6 11 C-2.0186217 9.6728739 1.85045227 9.93084087 6 10 C6.33 8.35 6.66 6.7 7 5 C6.21625 4.54625 5.4325 4.0925 4.625 3.625 C2 2 2 2 0 0 Z " fill="#4CD2C8" transform="translate(47,12)"/>
<path d="M0 0 C1.9375 0.8125 1.9375 0.8125 4 2 C5.20776206 5.62328619 5.40040892 8.19611527 5 12 C2.5 14.4375 2.5 14.4375 0 16 C-0.66 15.67 -1.32 15.34 -2 15 C-1.505 14.649375 -1.01 14.29875 -0.5 13.9375 C1.73063966 11.05625711 1.19980621 8.52990974 1 5 C-1.31 4.34 -3.62 3.68 -6 3 C-6 2.67 -6 2.34 -6 2 C-4.02 1.67 -2.04 1.34 0 1 C0 0.67 0 0.34 0 0 Z " fill="#DFFC9E" transform="translate(54,42)"/>
<path d="M0 0 C0.99 0.66 1.98 1.32 3 2 C3.51171005 5.94747752 3.60947751 8.1196436 1.3125 11.4375 C-1.38410809 13.25953249 -2.81126451 13.35430394 -6 13 C-5.360625 12.835 -4.72125 12.67 -4.0625 12.5 C-1.53434598 11.02688423 -1.53434598 11.02688423 -1.3125 7.0625 C-1.26738281 6.37285156 -1.22226562 5.68320312 -1.17578125 4.97265625 C-1 3 -1 3 0 0 Z " fill="#4CD3C9" transform="translate(53,45)"/>
<path d="M0 0 C0.33 0 0.66 0 1 0 C2.45454545 7.27272727 2.45454545 7.27272727 0.4375 10.5 C-2.57716809 12.35518036 -4.52068855 12.31630104 -8 12 C-6.32608747 10.88405831 -4.63118114 9.79389534 -2.875 8.8125 C-0.15452397 6.1827065 -0.27669583 3.66621969 0 0 Z " fill="#8BE4B6" transform="translate(57,48)"/>
<path d="M0 0 C2.64 0 5.28 0 8 0 C7.67 0.99 7.34 1.98 7 3 C4.69 3 2.38 3 0 3 C0 2.01 0 1.02 0 0 Z " fill="#9DC38E" transform="translate(14,58)"/>
<path d="M0 0 C1.65625 1.546875 1.65625 1.546875 3 3 C1.54077307 2.88590407 0.08259402 2.75834456 -1.375 2.625 C-2.59316406 2.52058594 -2.59316406 2.52058594 -3.8359375 2.4140625 C-6 2 -6 2 -8 0 C-4.65044556 -1.11651815 -3.32740404 -0.99822121 0 0 Z " fill="#D1D480" transform="translate(47,28)"/>
<path d="M0 0 C2.3773161 2.3773161 2.67028521 3.70285207 3 7 C0.8614515 9.1385485 -0.13275314 9.42655063 -3 10 C-2.505 9.278125 -2.01 8.55625 -1.5 7.8125 C0.07919285 4.85151341 0.28178312 3.28746971 0 0 Z " fill="#D4E790" transform="translate(56,15)"/>
</svg>
