<?xml version="1.0" encoding="UTF-8"?>
<svg version="1.1" xmlns="http://www.w3.org/2000/svg" width="256" height="256">
<path d="M0 0 C-0.99 0.33 -1.98 0.66 -3 1 C-4.10546369 2.74992715 -4.10546369 2.74992715 -4 5 C-2.14835964 7.75256794 -2.14835964 7.75256794 0 10 C-0.33 10.66 -0.66 11.32 -1 12 C-0.01 11.34 0.98 10.68 2 10 C6.63942004 9.66678199 10.07027674 10.20309435 13.625 13.25 C15 16 15 16 14.8125 18.6875 C14 21 14 21 13 23 C14.95751015 21.22891939 16.02691146 19.94019674 17.125 17.5 C19.93344731 13.75540359 23.49409321 12.86014683 28 12 C31.0625 12.3125 31.0625 12.3125 33 13 C33.495 14.98 33.495 14.98 34 17 C27.25 21 27.25 21 25 21 C24.7525 21.886875 24.505 22.77375 24.25 23.6875 C22.91551689 27.22388025 21.70818642 29.36704098 19 32 C15.38956182 33.25580458 13.57118195 33.18650839 9.9375 32 C6.18655349 29.44616408 4.44223664 26.80701595 2 23 C1.34 23.66 0.68 24.32 0 25 C0 26.32 0 27.64 0 29 C1.98 29.33 3.96 29.66 6 30 C6.05994141 31.15048828 6.05994141 31.15048828 6.12109375 32.32421875 C6.7579143 35.26277925 6.7579143 35.26277925 9.72265625 36.58203125 C10.82480469 36.98808594 11.92695313 37.39414063 13.0625 37.8125 C14.16722656 38.23144531 15.27195313 38.65039062 16.41015625 39.08203125 C17.26480469 39.38496094 18.11945313 39.68789062 19 40 C12.82184964 44.11876691 8.39876998 44.65067197 1 44 C-2.45345542 43.29258827 -5.13089391 42.18514467 -7.2890625 39.2421875 C-7.88847656 38.28699219 -7.88847656 38.28699219 -8.5 37.3125 C-9.59543683 35.4446858 -9.59543683 35.4446858 -11 34 C-14.71158857 33.41439551 -14.71158857 33.41439551 -18 34 C-18.495 32.515 -18.495 32.515 -19 31 C-23.18699684 31.66471086 -23.18699684 31.66471086 -27.3125 32.625 C-27.869375 32.74875 -28.42625 32.8725 -29 33 C-30 32 -30 32 -30.3125 28.75 C-29.94849543 24.38194519 -29.14877075 22.97856692 -26 20 C-22.46381269 18.13884879 -18.93857303 17.54956833 -15 17 C-15.165 16.505 -15.33 16.01 -15.5 15.5 C-16.37991553 11.10042233 -16.73077162 6.8512881 -15.0625 2.625 C-10.78519475 -0.74499807 -5.15874506 -1.63340675 0 0 Z " fill="#96B783" transform="translate(186,40)"/>
<path d="M0 0 C-0.99 0.33 -1.98 0.66 -3 1 C-4.10546369 2.74992715 -4.10546369 2.74992715 -4 5 C-2.14835964 7.75256794 -2.14835964 7.75256794 0 10 C-0.99 11.65 -1.98 13.3 -3 15 C-2.13375 14.484375 -1.2675 13.96875 -0.375 13.4375 C3.53833336 11.77070987 4.99808402 11.66602801 9 13 C11.29638567 14.50470933 13.01146072 16.05880689 15 18 C15 18.66 15 19.32 15 20 C15.99 20 16.98 20 18 20 C18.20625 19.4225 18.4125 18.845 18.625 18.25 C20.58033471 15.05036138 22.69037472 13.71845928 26 12 C29.71578477 12 31.69334235 12.8303596 34.9375 14.625 C37 17 37 17 36.8125 20.75 C36.544375 21.8225 36.27625 22.895 36 24 C34.68 24.33 33.36 24.66 32 25 C31.34 23.68 30.68 22.36 30 21 C29.443125 21.556875 28.88625 22.11375 28.3125 22.6875 C27.549375 23.450625 26.78625 24.21375 26 25 C24.700625 26.3303125 24.700625 26.3303125 23.375 27.6875 C20.71390522 30.27856597 19.82493859 30.89000819 16.1875 31.375 C11.95730265 30.87732972 10.75951297 29.13242012 8 26 C5.15173402 23.63307034 5.15173402 23.63307034 1.8125 24.375 C0.4203125 24.684375 0.4203125 24.684375 -1 25 C-0.67 26.32 -0.34 27.64 0 29 C1.98 29.33 3.96 29.66 6 30 C6.05994141 31.15048828 6.05994141 31.15048828 6.12109375 32.32421875 C6.7579143 35.26277925 6.7579143 35.26277925 9.72265625 36.58203125 C10.82480469 36.98808594 11.92695312 37.39414063 13.0625 37.8125 C14.16722656 38.23144531 15.27195313 38.65039062 16.41015625 39.08203125 C17.26480469 39.38496094 18.11945313 39.68789062 19 40 C12.82184964 44.11876691 8.39876998 44.65067197 1 44 C-2.45345542 43.29258827 -5.13089391 42.18514467 -7.2890625 39.2421875 C-7.88847656 38.28699219 -7.88847656 38.28699219 -8.5 37.3125 C-9.59543683 35.4446858 -9.59543683 35.4446858 -11 34 C-14.71158857 33.41439551 -14.71158857 33.41439551 -18 34 C-18.495 32.515 -18.495 32.515 -19 31 C-23.18699684 31.66471086 -23.18699684 31.66471086 -27.3125 32.625 C-27.869375 32.74875 -28.42625 32.8725 -29 33 C-30 32 -30 32 -30.3125 28.75 C-29.94849543 24.38194519 -29.14877075 22.97856692 -26 20 C-22.46381269 18.13884879 -18.93857303 17.54956833 -15 17 C-15.165 16.505 -15.33 16.01 -15.5 15.5 C-16.37991553 11.10042233 -16.73077162 6.8512881 -15.0625 2.625 C-10.78519475 -0.74499807 -5.15874506 -1.63340675 0 0 Z " fill="#96B783" transform="translate(58,39)"/>
<path d="M0 0 C-0.99 0.33 -1.98 0.66 -3 1 C-4.10546369 2.74992715 -4.10546369 2.74992715 -4 5 C-2.14835964 7.75256794 -2.14835964 7.75256794 0 10 C-0.33 10.66 -0.66 11.32 -1 12 C0.299375 10.7315625 0.299375 10.7315625 1.625 9.4375 C4.16202514 7.32631123 4.72465542 7.00539891 8.1875 6.9375 C11.32286587 8.12197155 12.33967582 9.1405528 14 12 C14.61488281 11.83242187 15.22976562 11.66484375 15.86328125 11.4921875 C16.67152344 11.28851563 17.47976562 11.08484375 18.3125 10.875 C19.11300781 10.66617188 19.91351563 10.45734375 20.73828125 10.2421875 C23 10 23 10 26 12 C25.6875 13.9375 25.6875 13.9375 25 16 C24.01 16.33 23.02 16.66 22 17 C21.731875 17.845625 21.46375 18.69125 21.1875 19.5625 C19.62613308 24.08224634 16.97857225 27.30956772 14 31 C10.76761586 30.92303847 8.66772205 30.62561345 6.265625 28.375 C4.78148327 26.62229929 3.36155666 24.84920638 2 23 C1.01 23.33 0.02 23.66 -1 24 C-0.67 25.65 -0.34 27.3 0 29 C1.98 29.33 3.96 29.66 6 30 C6.05994141 31.15048828 6.05994141 31.15048828 6.12109375 32.32421875 C6.7579143 35.26277925 6.7579143 35.26277925 9.72265625 36.58203125 C10.82480469 36.98808594 11.92695312 37.39414063 13.0625 37.8125 C14.16722656 38.23144531 15.27195313 38.65039062 16.41015625 39.08203125 C17.26480469 39.38496094 18.11945313 39.68789062 19 40 C12.82184964 44.11876691 8.39876998 44.65067197 1 44 C-2.45345542 43.29258827 -5.13089391 42.18514467 -7.2890625 39.2421875 C-7.88847656 38.28699219 -7.88847656 38.28699219 -8.5 37.3125 C-9.59543683 35.4446858 -9.59543683 35.4446858 -11 34 C-14.71158857 33.41439551 -14.71158857 33.41439551 -18 34 C-18.495 32.515 -18.495 32.515 -19 31 C-23.18699684 31.66471086 -23.18699684 31.66471086 -27.3125 32.625 C-27.869375 32.74875 -28.42625 32.8725 -29 33 C-30 32 -30 32 -30.3125 28.75 C-29.94849543 24.38194519 -29.14877075 22.97856692 -26 20 C-22.46381269 18.13884879 -18.93857303 17.54956833 -15 17 C-15.165 16.505 -15.33 16.01 -15.5 15.5 C-16.37991553 11.10042233 -16.73077162 6.8512881 -15.0625 2.625 C-10.78519475 -0.74499807 -5.15874506 -1.63340675 0 0 Z " fill="#92B381" transform="translate(58,169)"/>
<path d="M0 0 C-0.5775 0.226875 -1.155 0.45375 -1.75 0.6875 C-4.5663661 2.33038023 -6.08077114 4.39533227 -8 7 C-7.34 7.66 -6.68 8.32 -6 9 C-6.495 9.433125 -6.99 9.86625 -7.5 10.3125 C-9.33218192 11.99740483 -9.33218192 11.99740483 -9 15 C-7.41916626 14.97643433 -7.41916626 14.97643433 -5.80639648 14.95239258 C-1.87223035 14.89782744 2.06190274 14.86355388 5.99633789 14.83520508 C7.69463742 14.82017874 9.39289855 14.79975177 11.09106445 14.77368164 C13.54127518 14.73702551 15.99097 14.72021211 18.44140625 14.70703125 C19.56839684 14.68380547 19.56839684 14.68380547 20.71815491 14.66011047 C25.86780669 14.65849031 29.38802922 15.69534371 34 18 C34 18.33 34 18.66 34 19 C19.28436884 22.88203767 6.21513683 24.14771978 -9 24 C-8.34 25.98 -7.68 27.96 -7 30 C-3.04 29.505 -3.04 29.505 1 29 C0.01 29.495 0.01 29.495 -1 30 C3.23353847 34.93912821 8.12975632 37.32134512 14 40 C9.49075302 43.00616465 5.28733136 42.56277771 0 42 C-5.35472355 40.52804776 -9.96194254 38.05002043 -14.6875 35.1875 C-17.71843392 33.41855636 -19.56066808 32.68121105 -23.0625 33.1875 C-24.031875 33.455625 -25.00125 33.72375 -26 34 C-26.495 32.515 -26.495 32.515 -27 31 C-31.18699684 31.66471086 -31.18699684 31.66471086 -35.3125 32.625 C-35.869375 32.74875 -36.42625 32.8725 -37 33 C-38 32 -38 32 -38.3125 28.75 C-37.94849543 24.38194519 -37.14877075 22.97856692 -34 20 C-30.46381269 18.13884879 -26.93857303 17.54956833 -23 17 C-23.4021875 15.7315625 -23.4021875 15.7315625 -23.8125 14.4375 C-24.04337973 10.20470498 -22.96871797 8.80093891 -20.51953125 5.515625 C-17.51420988 2.51802939 -14.14602498 1.6677953 -10.0625 0.875 C-8.81146484 0.62363281 -8.81146484 0.62363281 -7.53515625 0.3671875 C-4.98541981 -0.00211177 -2.57240933 -0.06442528 0 0 Z " fill="#95B682" transform="translate(194,166)"/>
<path d="M0 0 C3.34056105 0.59115104 4.3962894 1.08967663 7.0625 3.375 C8.4375 6.125 8.4375 6.125 8.25 8.8125 C7.4375 11.125 7.4375 11.125 6.4375 13.125 C8.39501015 11.35391939 9.46441146 10.06519674 10.5625 7.625 C13.37094731 3.88040359 16.93159321 2.98514683 21.4375 2.125 C24.5 2.4375 24.5 2.4375 26.4375 3.125 C26.9325 5.105 26.9325 5.105 27.4375 7.125 C20.6875 11.125 20.6875 11.125 18.4375 11.125 C18.19 12.011875 17.9425 12.89875 17.6875 13.8125 C16.35301689 17.34888025 15.14568642 19.49204098 12.4375 22.125 C8.82706182 23.38080458 7.00868195 23.31150839 3.375 22.125 C-0.37594651 19.57116408 -2.12026336 16.93201595 -4.5625 13.125 C-6.51466435 15.07716435 -7.41076645 16.65699953 -8.5625 19.125 C-8.8925 17.475 -9.2225 15.825 -9.5625 14.125 C-10.4596875 14.4034375 -10.4596875 14.4034375 -11.375 14.6875 C-13.5625 15.125 -13.5625 15.125 -16.5625 14.125 C-16.92657767 9.63470874 -16.92657767 9.63470874 -15.3125 7.375 C-13.5625 6.125 -13.5625 6.125 -11.6875 5.75 C-9.25247921 5.24790943 -9.25247921 5.24790943 -7.375 2.5 C-4.29734676 -0.09890718 -3.80411057 -0.24944987 0 0 Z " fill="#8CAE7D" transform="translate(192.5625,49.875)"/>
<path d="M0 0 C2.30340661 1.4972143 4.01028285 3.05765707 6 5 C6 5.66 6 6.32 6 7 C6.99 7 7.98 7 9 7 C9.20625 6.4225 9.4125 5.845 9.625 5.25 C11.58033471 2.05036138 13.69037472 0.71845928 17 -1 C20.71578477 -1 22.69334235 -0.1696404 25.9375 1.625 C28 4 28 4 27.8125 7.75 C27.544375 8.8225 27.27625 9.895 27 11 C25.68 11.33 24.36 11.66 23 12 C22.34 10.68 21.68 9.36 21 8 C20.443125 8.556875 19.88625 9.11375 19.3125 9.6875 C18.549375 10.450625 17.78625 11.21375 17 12 C15.700625 13.3303125 15.700625 13.3303125 14.375 14.6875 C11.71390522 17.27856597 10.82493859 17.89000819 7.1875 18.375 C2.95730265 17.87732972 1.75951297 16.13242012 -1 13 C-3.84826598 10.63307034 -3.84826598 10.63307034 -7.1875 11.375 C-8.115625 11.58125 -9.04375 11.7875 -10 12 C-10.33 13.32 -10.66 14.64 -11 16 C-11.33 14.35 -11.66 12.7 -12 11 C-12.8971875 11.2784375 -12.8971875 11.2784375 -13.8125 11.5625 C-16 12 -16 12 -19 11 C-19.22223194 8.25913944 -19.34781139 6.56036279 -17.875 4.1875 C-15.22464043 2.50893894 -13.06753576 2.79549762 -10 3 C-10 2.34 -10 1.68 -10 1 C-6.39940027 -1.35423828 -4.07778555 -1.22333567 0 0 Z " fill="#91B280" transform="translate(67,52)"/>
<path d="M0 0 C1.875 2.0625 1.875 2.0625 3 4 C3.61488281 3.83242187 4.22976562 3.66484375 4.86328125 3.4921875 C5.67152344 3.28851563 6.47976562 3.08484375 7.3125 2.875 C8.51326172 2.56175781 8.51326172 2.56175781 9.73828125 2.2421875 C12 2 12 2 15 4 C14.6875 5.9375 14.6875 5.9375 14 8 C13.01 8.33 12.02 8.66 11 9 C10.731875 9.845625 10.46375 10.69125 10.1875 11.5625 C8.62613308 16.08224634 5.97857225 19.30956772 3 23 C-0.98806169 22.81450876 -3.26768702 22.17479512 -5.9375 19.25 C-8 16 -8 16 -7.8125 13.1875 C-7.544375 12.465625 -7.27625 11.74375 -7 11 C-7 10.67 -7 10.34 -7 10 C-8.98 11.65 -10.96 13.3 -13 15 C-13.99 14.34 -14.98 13.68 -16 13 C-15.34 13 -14.68 13 -14 13 C-14.99 12.01 -15.98 11.02 -17 10 C-17.33 10.66 -17.66 11.32 -18 12 C-18.33 11.01 -18.66 10.02 -19 9 C-18.29875 8.814375 -17.5975 8.62875 -16.875 8.4375 C-13.40517005 6.70258502 -11.70274509 4.56733611 -9.33203125 1.55859375 C-6.47882672 -1.77990657 -3.99275639 -1.05930272 0 0 Z " fill="#8FB17F" transform="translate(69,177)"/>
<path d="M0 0 C-0.5775 0.226875 -1.155 0.45375 -1.75 0.6875 C-4.5663661 2.33038023 -6.08077114 4.39533227 -8 7 C-7.34 7.66 -6.68 8.32 -6 9 C-6.495 9.433125 -6.99 9.86625 -7.5 10.3125 C-9.33218192 11.99740483 -9.33218192 11.99740483 -9 15 C2.88 15 14.76 15 27 15 C27 15.33 27 15.66 27 16 C25.72882324 16.01981934 24.45764648 16.03963867 23.14794922 16.06005859 C18.41777217 16.13630886 13.68789495 16.22499629 8.95800781 16.31738281 C6.91347181 16.35559239 4.86887043 16.3904591 2.82421875 16.421875 C-0.12002886 16.46769987 -3.06382948 16.5256656 -6.0078125 16.5859375 C-7.3722197 16.60326431 -7.3722197 16.60326431 -8.76419067 16.62094116 C-13.5962157 16.73252469 -17.42847748 17.28514609 -22 19 C-24.33212027 19.07522969 -26.6685311 19.09325876 -29 19 C-29 18.67 -29 18.34 -29 18 C-27.02 17.67 -25.04 17.34 -23 17 C-23.268125 16.154375 -23.53625 15.30875 -23.8125 14.4375 C-24.04337973 10.20470498 -22.96871797 8.80093891 -20.51953125 5.515625 C-17.51420988 2.51802939 -14.14602498 1.6677953 -10.0625 0.875 C-8.81146484 0.62363281 -8.81146484 0.62363281 -7.53515625 0.3671875 C-4.98541981 -0.00211177 -2.57240933 -0.06442528 0 0 Z " fill="#4C6F53" transform="translate(194,166)"/>
<path d="M0 0 C0.76166977 0.00222061 1.52333954 0.00444122 2.30809021 0.00672913 C3.16890701 0.00680466 4.02972382 0.00688019 4.91662598 0.00695801 C5.8520372 0.01211929 6.78744843 0.01728058 7.75120544 0.02259827 C8.70422043 0.02401321 9.65723541 0.02542816 10.63912964 0.02688599 C13.69605085 0.032503 16.75289996 0.04505836 19.80979919 0.05775452 C21.87685543 0.06276733 23.94391281 0.06733061 26.01097107 0.07142639 C31.08977507 0.08247795 36.16852489 0.09975397 41.24729919 0.12025452 C41.74229919 1.11025452 41.74229919 1.11025452 42.24729919 2.12025452 C40.75009098 2.60807441 39.24932556 3.08497815 37.74729919 3.55775452 C36.91198669 3.82459045 36.07667419 4.09142639 35.21604919 4.36634827 C28.08126248 6.17820858 20.69598825 6.42524987 13.37229919 6.80775452 C11.94917419 6.89766663 11.94917419 6.89766663 10.49729919 6.98939514 C9.13991638 7.05997131 9.13991638 7.05997131 7.75511169 7.13197327 C6.52752136 7.20097839 6.52752136 7.20097839 5.27513123 7.27137756 C3.24729919 7.12025452 3.24729919 7.12025452 1.24729919 5.12025452 C1.90729919 5.12025452 2.56729919 5.12025452 3.24729919 5.12025452 C2.25729919 4.13025452 1.26729919 3.14025452 0.24729919 2.12025452 C-0.08270081 2.78025452 -0.41270081 3.44025452 -0.75270081 4.12025452 C-0.75270081 3.46025452 -0.75270081 2.80025452 -0.75270081 2.12025452 C-1.41270081 1.79025452 -2.07270081 1.46025452 -2.75270081 1.12025452 C-1.75270081 0.12025452 -1.75270081 0.12025452 0 0 Z " fill="#9EBF88" transform="translate(179.75270080566406,181.87974548339844)"/>
<path d="M0 0 C-0.99 0.33 -1.98 0.66 -3 1 C-4.10546369 2.74992715 -4.10546369 2.74992715 -4 5 C-2.14835964 7.75256794 -2.14835964 7.75256794 0 10 C-0.99 11.65 -1.98 13.3 -3 15 C-2.34 15.33 -1.68 15.66 -1 16 C-2.03060547 16.19916016 -2.03060547 16.19916016 -3.08203125 16.40234375 C-4.43361328 16.66724609 -4.43361328 16.66724609 -5.8125 16.9375 C-6.70582031 17.11152344 -7.59914063 17.28554688 -8.51953125 17.46484375 C-11.11397171 17.97741153 -11.11397171 17.97741153 -14 19 C-16.33299825 19.03954234 -18.66708189 19.04401732 -21 19 C-21 18.67 -21 18.34 -21 18 C-19.02 17.67 -17.04 17.34 -15 17 C-15.2475 16.2575 -15.2475 16.2575 -15.5 15.5 C-16.37991553 11.10042233 -16.73077162 6.8512881 -15.0625 2.625 C-10.78519475 -0.74499807 -5.15874506 -1.63340675 0 0 Z " fill="#4A6C51" transform="translate(58,39)"/>
<path d="M0 0 C-0.99 0.33 -1.98 0.66 -3 1 C-4.10546369 2.74992715 -4.10546369 2.74992715 -4 5 C-2.14835964 7.75256794 -2.14835964 7.75256794 0 10 C-3 16 -3 16 -5.2578125 16.8515625 C-10.66472719 18.31010352 -15.39741222 19.37350585 -21 19 C-21 18.67 -21 18.34 -21 18 C-19.02 17.67 -17.04 17.34 -15 17 C-15.2475 16.2575 -15.2475 16.2575 -15.5 15.5 C-16.37991553 11.10042233 -16.73077162 6.8512881 -15.0625 2.625 C-10.78519475 -0.74499807 -5.15874506 -1.63340675 0 0 Z " fill="#4A6C51" transform="translate(58,169)"/>
<path d="M0 0 C-0.99 0.33 -1.98 0.66 -3 1 C-4.10546369 2.74992715 -4.10546369 2.74992715 -4 5 C-2.14835964 7.75256794 -2.14835964 7.75256794 0 10 C-3 16 -3 16 -5.2578125 16.8515625 C-10.66472719 18.31010352 -15.39741222 19.37350585 -21 19 C-21 18.67 -21 18.34 -21 18 C-19.02 17.67 -17.04 17.34 -15 17 C-15.2475 16.2575 -15.2475 16.2575 -15.5 15.5 C-16.37991553 11.10042233 -16.73077162 6.8512881 -15.0625 2.625 C-10.78519475 -0.74499807 -5.15874506 -1.63340675 0 0 Z " fill="#4A6C51" transform="translate(186,40)"/>
<path d="M0 0 C2.9375 0.375 2.9375 0.375 6 1 C6.495 1.99 6.495 1.99 7 3 C-7.71563116 6.88203767 -20.78486317 8.14771978 -36 8 C-36 9.65 -36 11.3 -36 13 C-36.33 13 -36.66 13 -37 13 C-37 10.69 -37 8.38 -37 6 C-35.68386719 5.95101562 -34.36773437 5.90203125 -33.01171875 5.8515625 C-16.20737485 5.21549639 -16.20737485 5.21549639 0 1 C0 0.67 0 0.34 0 0 Z " fill="#507457" transform="translate(221,182)"/>
<path d="M0 0 C0.26039062 0.56332031 0.52078125 1.12664062 0.7890625 1.70703125 C2.12215187 4.23130047 3.65222462 6.41178143 5.375 8.6875 C5.96023437 9.47511719 6.54546875 10.26273438 7.1484375 11.07421875 C10.05329201 14.09551258 12.12718278 13.97364682 16.234375 14.09765625 C17.39453125 14.08605469 18.5546875 14.07445312 19.75 14.0625 C20.92046875 14.05347656 22.0909375 14.04445312 23.296875 14.03515625 C24.18890625 14.02355469 25.0809375 14.01195312 26 14 C26 13.34 26 12.68 26 12 C28.475 12.495 28.475 12.495 31 13 C24.82184964 17.11876691 20.39876998 17.65067197 13 17 C9.54654458 16.29258827 6.86910609 15.18514467 4.7109375 12.2421875 C4.31132813 11.60539063 3.91171875 10.96859375 3.5 10.3125 C2.40456317 8.4446858 2.40456317 8.4446858 1 7 C-2.71158857 6.41439551 -2.71158857 6.41439551 -6 7 C-6 6.01 -6 5.02 -6 4 C-4.35 3.67 -2.7 3.34 -1 3 C-0.67 2.01 -0.34 1.02 0 0 Z " fill="#517558" transform="translate(46,196)"/>
<path d="M0 0 C0.26039063 0.56332031 0.52078125 1.12664062 0.7890625 1.70703125 C2.12215187 4.23130047 3.65222462 6.41178143 5.375 8.6875 C5.96023437 9.47511719 6.54546875 10.26273438 7.1484375 11.07421875 C10.05329201 14.09551258 12.12718278 13.97364682 16.234375 14.09765625 C17.39453125 14.08605469 18.5546875 14.07445313 19.75 14.0625 C20.92046875 14.05347656 22.0909375 14.04445313 23.296875 14.03515625 C24.18890625 14.02355469 25.0809375 14.01195313 26 14 C26 13.34 26 12.68 26 12 C28.475 12.495 28.475 12.495 31 13 C24.82184964 17.11876691 20.39876998 17.65067197 13 17 C9.54654458 16.29258827 6.86910609 15.18514467 4.7109375 12.2421875 C4.31132812 11.60539062 3.91171875 10.96859375 3.5 10.3125 C2.40456317 8.4446858 2.40456317 8.4446858 1 7 C-2.71158857 6.41439551 -2.71158857 6.41439551 -6 7 C-6 6.01 -6 5.02 -6 4 C-4.35 3.67 -2.7 3.34 -1 3 C-0.67 2.01 -0.34 1.02 0 0 Z " fill="#517558" transform="translate(174,67)"/>
<path d="M0 0 C0.26039062 0.56332031 0.52078125 1.12664062 0.7890625 1.70703125 C2.12215187 4.23130047 3.65222462 6.41178143 5.375 8.6875 C5.96023437 9.47511719 6.54546875 10.26273438 7.1484375 11.07421875 C10.05329201 14.09551258 12.12718278 13.97364682 16.234375 14.09765625 C17.39453125 14.08605469 18.5546875 14.07445313 19.75 14.0625 C20.92046875 14.05347656 22.0909375 14.04445313 23.296875 14.03515625 C24.18890625 14.02355469 25.0809375 14.01195313 26 14 C26 13.34 26 12.68 26 12 C28.475 12.495 28.475 12.495 31 13 C24.82184964 17.11876691 20.39876998 17.65067197 13 17 C9.54654458 16.29258827 6.86910609 15.18514467 4.7109375 12.2421875 C4.31132813 11.60539062 3.91171875 10.96859375 3.5 10.3125 C2.40456317 8.4446858 2.40456317 8.4446858 1 7 C-2.71158857 6.41439551 -2.71158857 6.41439551 -6 7 C-6 6.01 -6 5.02 -6 4 C-4.35 3.67 -2.7 3.34 -1 3 C-0.67 2.01 -0.34 1.02 0 0 Z " fill="#517558" transform="translate(46,66)"/>
<path d="M0 0 C0.66 0.33 1.32 0.66 2 1 C2.20625 1.7425 2.4125 2.485 2.625 3.25 C5.26632998 8.53265995 10.97635013 10.76825554 16.3125 12.8125 C20.78588596 14.2128643 24.96640874 14.16853285 29.6171875 13.91015625 C32 14 32 14 35 16 C27.58372956 18.47209015 20.43044687 17.31949561 13.41015625 14.2265625 C10.9690719 12.98426026 8.65456087 11.60621031 6.3125 10.1875 C3.28156608 8.41855636 1.43933192 7.68121105 -2.0625 8.1875 C-3.031875 8.455625 -4.00125 8.72375 -5 9 C-5 8.01 -5 7.02 -5 6 C-3.35 5.67 -1.7 5.34 0 5 C0 3.35 0 1.7 0 0 Z " fill="#517558" transform="translate(173,191)"/>
<path d="M0 0 C0.66 0.33 1.32 0.66 2 1 C1.34 1.7425 0.68 2.485 0 3.25 C-2.39211447 5.97242945 -2.39211447 5.97242945 -2 10 C-1.236875 9.67 -0.47375 9.34 0.3125 9 C3 8 3 8 6 8 C6.33 8.99 6.66 9.98 7 11 C6.0925 11.144375 5.185 11.28875 4.25 11.4375 C1.13728293 11.92466099 1.13728293 11.92466099 -1.3125 12.625 C-1.869375 12.74875 -2.42625 12.8725 -3 13 C-4 12 -4 12 -4.3125 8.75 C-3.95628972 4.47547661 -2.93261437 3.02425856 0 0 Z " fill="#577F5E" transform="translate(32,189)"/>
<path d="M0 0 C0.66 0.33 1.32 0.66 2 1 C1.34 1.7425 0.68 2.485 0 3.25 C-2.39211447 5.97242945 -2.39211447 5.97242945 -2 10 C-1.236875 9.67 -0.47375 9.34 0.3125 9 C3 8 3 8 6 8 C6.33 8.99 6.66 9.98 7 11 C6.0925 11.144375 5.185 11.28875 4.25 11.4375 C1.13728293 11.92466099 1.13728293 11.92466099 -1.3125 12.625 C-1.869375 12.74875 -2.42625 12.8725 -3 13 C-4 12 -4 12 -4.3125 8.75 C-3.95628972 4.47547661 -2.93261437 3.02425856 0 0 Z " fill="#577F5E" transform="translate(160,186)"/>
<path d="M0 0 C0.66 0.33 1.32 0.66 2 1 C1.34 1.7425 0.68 2.485 0 3.25 C-2.39211447 5.97242945 -2.39211447 5.97242945 -2 10 C-1.236875 9.67 -0.47375 9.34 0.3125 9 C3 8 3 8 6 8 C6.33 8.99 6.66 9.98 7 11 C6.0925 11.144375 5.185 11.28875 4.25 11.4375 C1.13728293 11.92466099 1.13728293 11.92466099 -1.3125 12.625 C-1.869375 12.74875 -2.42625 12.8725 -3 13 C-4 12 -4 12 -4.3125 8.75 C-3.95628972 4.47547661 -2.93261437 3.02425856 0 0 Z " fill="#577F5E" transform="translate(160,60)"/>
<path d="M0 0 C0.66 0.33 1.32 0.66 2 1 C1.34 1.7425 0.68 2.485 0 3.25 C-2.39211447 5.97242945 -2.39211447 5.97242945 -2 10 C-1.236875 9.67 -0.47375 9.34 0.3125 9 C3 8 3 8 6 8 C6.33 8.99 6.66 9.98 7 11 C6.0925 11.144375 5.185 11.28875 4.25 11.4375 C1.13728293 11.92466099 1.13728293 11.92466099 -1.3125 12.625 C-1.869375 12.74875 -2.42625 12.8725 -3 13 C-4 12 -4 12 -4.3125 8.75 C-3.95628972 4.47547661 -2.93261437 3.02425856 0 0 Z " fill="#577F5E" transform="translate(32,59)"/>
<path d="M0 0 C1.65 0 3.3 0 5 0 C5.93423645 3.01031744 6.04449911 3.86650268 5 7 C3.35 7 1.7 7 0 7 C-0.93423645 3.98968256 -1.04449911 3.13349732 0 0 Z " fill="#A48653" transform="translate(49,187)"/>
<path d="M0 0 C1.65 0 3.3 0 5 0 C5.93423645 3.01031744 6.04449911 3.86650268 5 7 C3.35 7 1.7 7 0 7 C-0.93423645 3.98968256 -1.04449911 3.13349732 0 0 Z " fill="#A48653" transform="translate(177,184)"/>
<path d="M0 0 C1.65 0 3.3 0 5 0 C5.93423645 3.01031744 6.04449911 3.86650268 5 7 C3.35 7 1.7 7 0 7 C-0.93423645 3.98968256 -1.04449911 3.13349732 0 0 Z " fill="#A48653" transform="translate(177,58)"/>
<path d="M0 0 C1.65 0 3.3 0 5 0 C5.93423645 3.01031744 6.04449911 3.86650268 5 7 C3.35 7 1.7 7 0 7 C-0.93423645 3.98968256 -1.04449911 3.13349732 0 0 Z " fill="#A48653" transform="translate(49,57)"/>
<path d="M0 0 C0 0.99 0 1.98 0 3 C-2.69887429 5.1432237 -4.64431601 5.949188 -8.0625 6.4375 C-11.63988574 5.90469787 -12.75828653 4.75903196 -15 2 C-14.01 2 -13.02 2 -12 2 C-11.67 2.33 -11.34 2.66 -11 3 C-6.33521915 3.42407099 -3.81535994 2.69319525 0 0 Z " fill="#517658" transform="translate(82,64)"/>
<path d="M0 0 C1.65 0.33 3.3 0.66 5 1 C0.4272135 4.04852433 -2.17833079 5.25765879 -7.75 5.125 C-8.73484375 5.10695312 -9.7196875 5.08890625 -10.734375 5.0703125 C-11.85585938 5.03550781 -11.85585938 5.03550781 -13 5 C-13 4.67 -13 4.34 -13 4 C-9.7 4 -6.4 4 -3 4 C-3 3.34 -3 2.68 -3 2 C-2.01 2 -1.02 2 0 2 C0 1.34 0 0.68 0 0 Z " fill="#598160" transform="translate(72,208)"/>
<path d="M0 0 C1.65 0.33 3.3 0.66 5 1 C0.4272135 4.04852433 -2.17833079 5.25765879 -7.75 5.125 C-8.73484375 5.10695313 -9.7196875 5.08890625 -10.734375 5.0703125 C-11.85585937 5.03550781 -11.85585937 5.03550781 -13 5 C-13 4.67 -13 4.34 -13 4 C-9.7 4 -6.4 4 -3 4 C-3 3.34 -3 2.68 -3 2 C-2.01 2 -1.02 2 0 2 C0 1.34 0 0.68 0 0 Z " fill="#598160" transform="translate(200,79)"/>
<path d="M0 0 C1.65 0.33 3.3 0.66 5 1 C0.4272135 4.04852433 -2.17833079 5.25765879 -7.75 5.125 C-8.73484375 5.10695313 -9.7196875 5.08890625 -10.734375 5.0703125 C-11.85585938 5.03550781 -11.85585938 5.03550781 -13 5 C-13 4.67 -13 4.34 -13 4 C-9.7 4 -6.4 4 -3 4 C-3 3.34 -3 2.68 -3 2 C-2.01 2 -1.02 2 0 2 C0 1.34 0 0.68 0 0 Z " fill="#598160" transform="translate(72,78)"/>
<path d="M0 0 C3.0625 0.25 3.0625 0.25 6 1 C6.33 1.66 6.66 2.32 7 3 C2.545 3.495 2.545 3.495 -2 4 C-2 2 -2 2 0 0 Z " fill="#577E5E" transform="translate(221,182)"/>
<path d="M0 0 C1 3 1 3 0 6 C-1.65 6 -3.3 6 -5 6 C-4.67 5.01 -4.34 4.02 -4 3 C-3.34 3 -2.68 3 -2 3 C-2 2.34 -2 1.68 -2 1 C-1.34 0.67 -0.68 0.34 0 0 Z " fill="#A57B48" transform="translate(54,188)"/>
<path d="M0 0 C1 3 1 3 0 6 C-1.65 6 -3.3 6 -5 6 C-4.67 5.01 -4.34 4.02 -4 3 C-3.34 3 -2.68 3 -2 3 C-2 2.34 -2 1.68 -2 1 C-1.34 0.67 -0.68 0.34 0 0 Z " fill="#A57B48" transform="translate(182,185)"/>
<path d="M0 0 C1 3 1 3 0 6 C-1.65 6 -3.3 6 -5 6 C-4.67 5.01 -4.34 4.02 -4 3 C-3.34 3 -2.68 3 -2 3 C-2 2.34 -2 1.68 -2 1 C-1.34 0.67 -0.68 0.34 0 0 Z " fill="#A57B48" transform="translate(182,59)"/>
<path d="M0 0 C1 3 1 3 0 6 C-1.65 6 -3.3 6 -5 6 C-4.67 5.01 -4.34 4.02 -4 3 C-3.34 3 -2.68 3 -2 3 C-2 2.34 -2 1.68 -2 1 C-1.34 0.67 -0.68 0.34 0 0 Z " fill="#A57B48" transform="translate(54,58)"/>
</svg>
