<?xml version="1.0" encoding="UTF-8"?>
<svg version="1.1" xmlns="http://www.w3.org/2000/svg" width="64" height="64">
<path d="M0 0 C3.04221065 -0.08132642 6.0822238 -0.14065374 9.125 -0.1875 C9.9809375 -0.21263672 10.836875 -0.23777344 11.71875 -0.26367188 C18.1996315 -0.33845128 22.46401455 0.66422393 27.375 5.1875 C29.49764603 8.86131044 29.76053195 11.91020066 29 16 C27.67309649 19.7496206 25.88312155 22.38860816 22.5625 24.6875 C17.53822482 26.53854875 12.92963419 26.32097144 7.625 26.1875 C6.09166016 26.16719727 6.09166016 26.16719727 4.52734375 26.14648438 C2.01767951 26.11130217 -0.4908809 26.06207539 -3 26 C-2.67 25.34 -2.34 24.68 -2 24 C-1.01 24 -0.02 24 1 24 C-0.32 23.34 -1.64 22.68 -3 22 C-1.68 21.67 -0.36 21.34 1 21 C-0.32 20.67 -1.64 20.34 -3 20 C-1.68 18.68 -0.36 17.36 1 16 C0.34 15.67 -0.32 15.34 -1 15 C-0.67 14.01 -0.34 13.02 0 12 C0.33 12 0.66 12 1 12 C1 11.34 1 10.68 1 10 C-0.32 9.67 -1.64 9.34 -3 9 C-2.34 8.34 -1.68 7.68 -1 7 C-0.67 7.33 -0.34 7.66 0 8 C0.33 6.68 0.66 5.36 1 4 C0.01 3.67 -0.98 3.34 -2 3 C-0.35 2.67 1.3 2.34 3 2 C2.01 1.34 1.02 0.68 0 0 Z " fill="#9D4014" transform="translate(3,4)"/>
<path d="M0 0 C2.5625 0.171875 2.5625 0.171875 5.4375 2.421875 C7.5625 5.171875 7.5625 5.171875 7.5625 9.171875 C8.2225 9.171875 8.8825 9.171875 9.5625 9.171875 C10.2265051 15.54632399 8.44148454 19.14558518 4.5625 24.171875 C1.99268158 27.07393907 0.03245426 28.07264732 -3.92578125 28.33984375 C-9.18284067 28.37619962 -13.51032398 28.24647543 -18.4375 26.171875 C-18.7675 26.171875 -19.0975 26.171875 -19.4375 26.171875 C-19.7675 24.851875 -20.0975 23.531875 -20.4375 22.171875 C-19.1175 21.841875 -17.7975 21.511875 -16.4375 21.171875 C-16.623125 20.5325 -16.80875 19.893125 -17 19.234375 C-17.144375 18.55375 -17.28875 17.873125 -17.4375 17.171875 C-17.1075 16.841875 -16.7775 16.511875 -16.4375 16.171875 C-18.0875 15.841875 -19.7375 15.511875 -21.4375 15.171875 C-19.4375 14.171875 -17.4375 13.171875 -15.4375 12.171875 C-17.9125 11.181875 -17.9125 11.181875 -20.4375 10.171875 C-20.4375 9.841875 -20.4375 9.511875 -20.4375 9.171875 C-19.4475 8.841875 -18.4575 8.511875 -17.4375 8.171875 C-16.21880071 5.66739984 -16.21880071 5.66739984 -15.4375 3.171875 C-17.7475 2.841875 -20.0575 2.511875 -22.4375 2.171875 C-22.4375 1.841875 -22.4375 1.511875 -22.4375 1.171875 C-19.39593125 1.00323356 -16.35426547 0.83689747 -13.3125 0.671875 C-12.4565625 0.62417969 -11.600625 0.57648437 -10.71875 0.52734375 C-7.14661475 0.33499801 -3.57284369 0.17864218 0 0 Z " fill="#C0440F" transform="translate(54.4375,0.828125)"/>
<path d="M0 0 C3.39537852 -0.14575327 6.78994902 -0.23421542 10.1875 -0.3125 C11.14720703 -0.35439453 12.10691406 -0.39628906 13.09570312 -0.43945312 C20.29033808 -0.56392778 20.29033808 -0.56392778 24.0625 2.43359375 C24.701875 3.28050781 25.34125 4.12742187 26 5 C26.598125 5.45375 27.19625 5.9075 27.8125 6.375 C29.92358742 9.26385647 29.45360812 11.54123811 29 15 C27.60095601 17.87313248 25.88473238 20.42508393 24 23 C23.62875 23.72316406 23.2575 24.44632813 22.875 25.19140625 C19.84285562 28.11616218 16.3731758 27.67671463 12.3125 27.75 C11.51521484 27.77964844 10.71792969 27.80929688 9.89648438 27.83984375 C7.93153251 27.91044082 5.96576023 27.95749708 4 28 C4.99 26.68 5.98 25.36 7 24 C6.67 23.34 6.34 22.68 6 22 C6.66 22 7.32 22 8 22 C8 21.34 8 20.68 8 20 C7.195625 20.5259375 7.195625 20.5259375 6.375 21.0625 C3.26725237 22.28924249 1.20568297 21.72856431 -2 21 C-1.34 19.35 -0.68 17.7 0 16 C1.65 16.33 3.3 16.66 5 17 C4.01 16.67 3.02 16.34 2 16 C1.67 15.01 1.34 14.02 1 13 C0.34 12.34 -0.32 11.68 -1 11 C2 10 2 10 5 11 C5 10.34 5 9.68 5 9 C4.01 8.67 3.02 8.34 2 8 C2.66 7.01 3.32 6.02 4 5 C3.34 5 2.68 5 2 5 C2 3.68 2 2.36 2 1 C1.34 0.67 0.68 0.34 0 0 Z " fill="#C0400B" transform="translate(34,35)"/>
<path d="M0 0 C0.70769531 -0.03738281 1.41539063 -0.07476562 2.14453125 -0.11328125 C6.16365342 -0.18064084 7.92429092 0.21912464 11.1328125 2.7109375 C13.125 5.375 13.125 5.375 13.125 8.375 C13.785 8.375 14.445 8.375 15.125 8.375 C15.79042223 14.76305338 14.04548276 18.35542237 10.125 23.375 C6.24112363 27.38833891 1.59904408 27.32831992 -3.7734375 27.4296875 C-6.47495296 27.43663227 -9.17388053 27.41896035 -11.875 27.375 C-11.215 25.725 -10.555 24.075 -9.875 22.375 C-10.514375 22.08625 -11.15375 21.7975 -11.8125 21.5 C-13.875 20.375 -13.875 20.375 -14.875 18.375 C-13.225 17.715 -11.575 17.055 -9.875 16.375 C-11.195 14.725 -12.515 13.075 -13.875 11.375 C-12.225 11.045 -10.575 10.715 -8.875 10.375 C-10.855 9.715 -12.835 9.055 -14.875 8.375 C-14.875 8.045 -14.875 7.715 -14.875 7.375 C-13.225 7.375 -11.575 7.375 -9.875 7.375 C-9.875 6.715 -9.875 6.055 -9.875 5.375 C-10.535 5.045 -11.195 4.715 -11.875 4.375 C-11.545 3.385 -11.215 2.395 -10.875 1.375 C-7.22579022 0.15859674 -3.80420257 0.07539861 0 0 Z M-9.875 24.375 C-9.875 25.035 -9.875 25.695 -9.875 26.375 C-7.895 26.045 -5.915 25.715 -3.875 25.375 C-3.875 25.045 -3.875 24.715 -3.875 24.375 C-5.855 24.375 -7.835 24.375 -9.875 24.375 Z " fill="#972F0A" transform="translate(15.875,34.625)"/>
<path d="M0 0 C2.5625 0.171875 2.5625 0.171875 5.4375 2.421875 C7.5625 5.171875 7.5625 5.171875 7.5625 9.171875 C8.2225 9.171875 8.8825 9.171875 9.5625 9.171875 C10.2265051 15.54632399 8.44148454 19.14558518 4.5625 24.171875 C1.95711103 27.11410845 -0.02225441 28.08022506 -4.03125 28.33984375 C-4.9903125 28.34628906 -5.949375 28.35273438 -6.9375 28.359375 C-8.37609375 28.38064453 -8.37609375 28.38064453 -9.84375 28.40234375 C-12.4375 28.171875 -12.4375 28.171875 -15.4375 26.171875 C-14.2825 26.089375 -13.1275 26.006875 -11.9375 25.921875 C-7.34887256 25.34217296 -3.18211074 23.9407773 0.5625 21.171875 C1.26169403 19.85530752 1.93224958 18.52280306 2.5625 17.171875 C3.2225 16.841875 3.8825 16.511875 4.5625 16.171875 C3.40107315 11.81652431 2.48550495 9.52567797 -1.4375 7.171875 C-1.1075 6.841875 -0.7775 6.511875 -0.4375 6.171875 C-2.70351865 4.88144737 -2.70351865 4.88144737 -5.4375 4.171875 C-7.82192803 5.23081471 -7.82192803 5.23081471 -9.4375 7.171875 C-9.4375 8.161875 -9.4375 9.151875 -9.4375 10.171875 C-9.7675 11.161875 -10.0975 12.151875 -10.4375 13.171875 C-11.0975 13.171875 -11.7575 13.171875 -12.4375 13.171875 C-12.4375 13.831875 -12.4375 14.491875 -12.4375 15.171875 C-11.7775 15.501875 -11.1175 15.831875 -10.4375 16.171875 C-14.0675 15.841875 -17.6975 15.511875 -21.4375 15.171875 C-19.4375 14.171875 -17.4375 13.171875 -15.4375 12.171875 C-17.9125 11.181875 -17.9125 11.181875 -20.4375 10.171875 C-20.4375 9.841875 -20.4375 9.511875 -20.4375 9.171875 C-19.4475 8.841875 -18.4575 8.511875 -17.4375 8.171875 C-16.21880071 5.66739984 -16.21880071 5.66739984 -15.4375 3.171875 C-17.7475 2.841875 -20.0575 2.511875 -22.4375 2.171875 C-22.4375 1.841875 -22.4375 1.511875 -22.4375 1.171875 C-19.39593125 1.00323356 -16.35426547 0.83689747 -13.3125 0.671875 C-12.4565625 0.62417969 -11.600625 0.57648437 -10.71875 0.52734375 C-7.14661475 0.33499801 -3.57284369 0.17864218 0 0 Z " fill="#952F0B" transform="translate(54.4375,0.828125)"/>
<path d="M0 0 C3.04221065 -0.08132642 6.0822238 -0.14065374 9.125 -0.1875 C9.9809375 -0.21263672 10.836875 -0.23777344 11.71875 -0.26367188 C18.1996315 -0.33845128 22.46401455 0.66422393 27.375 5.1875 C29.49764603 8.86131044 29.76053195 11.91020066 29 16 C27.67309649 19.7496206 25.88312155 22.38860816 22.5625 24.6875 C17.53822482 26.53854875 12.92963419 26.32097144 7.625 26.1875 C6.09166016 26.16719727 6.09166016 26.16719727 4.52734375 26.14648438 C2.01767951 26.11130217 -0.4908809 26.06207539 -3 26 C-2.67 25.34 -2.34 24.68 -2 24 C1.3 24 4.6 24 8 24 C8.33 23.01 8.66 22.02 9 21 C9.99 21.66 10.98 22.32 12 23 C15.37183542 23.75102535 15.37183542 23.75102535 19 23 C22.58332208 20.28512498 24.66150993 17.35396028 25.75 13 C24.66083694 8.64334777 22.66150271 5.64271639 19 3 C16.08330197 2.40934251 14.00615075 2.6371887 11 3 C10.7834375 4.175625 10.7834375 4.175625 10.5625 5.375 C10 8 10 8 9 10 C8.34 10 7.68 10 7 10 C7 10.66 7 11.32 7 12 C5.02 12 3.04 12 1 12 C1 11.34 1 10.68 1 10 C-0.32 9.67 -1.64 9.34 -3 9 C-2.34 8.34 -1.68 7.68 -1 7 C-0.67 7.33 -0.34 7.66 0 8 C0.33 6.68 0.66 5.36 1 4 C0.01 3.67 -0.98 3.34 -2 3 C-0.35 2.67 1.3 2.34 3 2 C2.01 1.34 1.02 0.68 0 0 Z " fill="#853110" transform="translate(3,4)"/>
<path d="M0 0 C3.39537852 -0.14575327 6.78994902 -0.23421542 10.1875 -0.3125 C11.14720703 -0.35439453 12.10691406 -0.39628906 13.09570312 -0.43945312 C20.29033808 -0.56392778 20.29033808 -0.56392778 24.0625 2.43359375 C24.701875 3.28050781 25.34125 4.12742187 26 5 C26.598125 5.45375 27.19625 5.9075 27.8125 6.375 C29.92358742 9.26385647 29.45360812 11.54123811 29 15 C27.60095601 17.87313248 25.88473238 20.42508393 24 23 C23.62875 23.72316406 23.2575 24.44632813 22.875 25.19140625 C19.84285562 28.11616218 16.3731758 27.67671463 12.3125 27.75 C11.51521484 27.77964844 10.71792969 27.80929688 9.89648438 27.83984375 C7.93153251 27.91044082 5.96576023 27.95749708 4 28 C4 27.67 4 27.34 4 27 C6.97 26.67 9.94 26.34 13 26 C13.33 25.01 13.66 24.02 14 23 C16.5625 21.3125 16.5625 21.3125 19 20 C17.68 19.01 16.36 18.02 15 17 C16.32 17 17.64 17 19 17 C19.66 16.34 20.32 15.68 21 15 C21.33 15.33 21.66 15.66 22 16 C22.66 15.67 23.32 15.34 24 15 C23.1905146 13.01959844 22.37732831 11.04070923 21.5625 9.0625 C20.88380859 7.40927734 20.88380859 7.40927734 20.19140625 5.72265625 C19.25575392 3.13431084 19.25575392 3.13431084 18 2 C14.76196361 1.92682404 11.53501583 2.00389112 8.296875 2.0625 C5.37205569 2.00705319 2.83428847 1.68193407 0 1 C0 0.67 0 0.34 0 0 Z " fill="#A84112" transform="translate(34,35)"/>
<path d="M0 0 C0.33 0.99 0.66 1.98 1 3 C1.99 3.66 2.98 4.32 4 5 C4.92070253 8.25787048 5.31856608 10.19296594 4.0625 13.375 C3.711875 13.91125 3.36125 14.4475 3 15 C2.34 15 1.68 15 1 15 C0.5875 15.639375 0.175 16.27875 -0.25 16.9375 C-2.59697894 19.70358232 -4.48008781 19.68711892 -8 20 C-8.66 18.35 -9.32 16.7 -10 15 C-9.01 14.34 -8.02 13.68 -7 13 C-7.5259375 11.9171875 -7.5259375 11.9171875 -8.0625 10.8125 C-9.12787856 7.61636431 -9.0812528 6.1605851 -8 3 C-5.73951914 -0.27769724 -3.8404654 -0.31138909 0 0 Z " fill="#FEEED6" transform="translate(53,39)"/>
<path d="M0 0 C1.2065625 0.0309375 1.2065625 0.0309375 2.4375 0.0625 C2.7675 1.0525 3.0975 2.0425 3.4375 3.0625 C4.489375 3.92875 4.489375 3.92875 5.5625 4.8125 C7.4375 7.0625 7.4375 7.0625 7.5625 10.5 C6.12678416 15.04643351 4.4198319 16.50779652 0.4375 19.0625 C-2.9375 19.875 -2.9375 19.875 -5.5625 20.0625 C-6.2225 18.4125 -6.8825 16.7625 -7.5625 15.0625 C-6.92441406 15.00191406 -6.28632813 14.94132812 -5.62890625 14.87890625 C-4.80261719 14.79511719 -3.97632813 14.71132813 -3.125 14.625 C-2.30128906 14.54378906 -1.47757813 14.46257813 -0.62890625 14.37890625 C1.42412025 14.27319185 1.42412025 14.27319185 2.4375 13.0625 C1.014375 13.124375 1.014375 13.124375 -0.4375 13.1875 C-3.5625 13.0625 -3.5625 13.0625 -5.5625 11.0625 C-5.5625 10.4025 -5.5625 9.7425 -5.5625 9.0625 C-3.9125 8.7325 -2.2625 8.4025 -0.5625 8.0625 C-0.5625 7.0725 -0.5625 6.0825 -0.5625 5.0625 C-2.2125 5.0625 -3.8625 5.0625 -5.5625 5.0625 C-3.15007962 0.07683121 -3.15007962 0.07683121 0 0 Z " fill="#FEEED6" transform="translate(18.5625,38.9375)"/>
<path d="M0 0 C0.66 0.66 1.32 1.32 2 2 C2.66 2 3.32 2 4 2 C5.05629997 10.4839331 5.05629997 10.4839331 2.58203125 14.03515625 C0.74976902 15.68770833 -0.74549739 16.98730675 -3 18 C-5.234375 17.64453125 -5.234375 17.64453125 -7 17 C-7 16.34 -7 15.68 -7 15 C-7.99 14.67 -8.98 14.34 -10 14 C-9.34 12.68 -8.68 11.36 -8 10 C-7.34 10 -6.68 10 -6 10 C-6 9.34 -6 8.68 -6 8 C-6.99 7.34 -7.98 6.68 -9 6 C-7.35 5.34 -5.7 4.68 -4 4 C-4.66 3.67 -5.32 3.34 -6 3 C-6 2.34 -6 1.68 -6 1 C-4 0 -4 0 0 0 Z " fill="#F9E5CB" transform="translate(23,9)"/>
<path d="M0 0 C2.625 -0.1875 2.625 -0.1875 5 0 C5.33 0.99 5.66 1.98 6 3 C7.051875 3.86625 7.051875 3.86625 8.125 4.75 C10 7 10 7 10.125 10.4375 C8.6406912 15.1378112 7.11259506 16.36793916 3 19 C0.49642139 18.1654738 -1.66785852 17.20628008 -4 16 C-2.68 15.34 -1.36 14.68 0 14 C0 13.01 0 12.02 0 11 C-0.99 10.34 -1.98 9.68 -3 9 C-2.34 8.34 -1.68 7.68 -1 7 C-0.01 7 0.98 7 2 7 C2 6.34 2 5.68 2 5 C0.68 4.34 -0.64 3.68 -2 3 C-1.34 2.01 -0.68 1.02 0 0 Z " fill="#FEF0D9" transform="translate(49,6)"/>
<path d="M0 0 C6.27 0 12.54 0 19 0 C19 0.33 19 0.66 19 1 C16.03 1 13.06 1 10 1 C10.20625 1.7425 10.4125 2.485 10.625 3.25 C11.04408751 6.32330841 10.61949011 7.42786866 9 10 C8.34 10 7.68 10 7 10 C7 10.66 7 11.32 7 12 C5.02 12 3.04 12 1 12 C1 11.34 1 10.68 1 10 C-0.32 9.67 -1.64 9.34 -3 9 C-2.34 8.34 -1.68 7.68 -1 7 C-0.67 7.33 -0.34 7.66 0 8 C0.33 6.68 0.66 5.36 1 4 C0.01 3.67 -0.98 3.34 -2 3 C-0.35 2.67 1.3 2.34 3 2 C2.01 1.34 1.02 0.68 0 0 Z " fill="#873713" transform="translate(3,4)"/>
<path d="M0 0 C0.33 0.66 0.66 1.32 1 2 C1.99 2.33 2.98 2.66 4 3 C1.69 3.66 -0.62 4.32 -3 5 C-3 5.66 -3 6.32 -3 7 C-0.03 7.495 -0.03 7.495 3 8 C2.67 8.66 2.34 9.32 2 10 C-0.64 10 -3.28 10 -6 10 C-6 9.01 -6 8.02 -6 7 C-6.9075 6.9175 -7.815 6.835 -8.75 6.75 C-12.40077839 5.90751268 -13.63384583 4.82118382 -16 2 C-12.25 0.875 -12.25 0.875 -10 2 C-10 1.34 -10 0.68 -10 0 C-6.42742531 -1.23666047 -3.64473199 -0.89093449 0 0 Z " fill="#B35018" transform="translate(18,44)"/>
<path d="M0 0 C0 1.32 0 2.64 0 4 C0.66 4.66 1.32 5.32 2 6 C2 6.66 2 7.32 2 8 C4.64 8.33 7.28 8.66 10 9 C10 9.33 10 9.66 10 10 C3.97403427 11.0712828 -1.88909517 11.09945415 -8 11 C-7.34 9.35 -6.68 7.7 -6 6 C-6.9590625 5.566875 -6.9590625 5.566875 -7.9375 5.125 C-10 4 -10 4 -11 2 C-7.17010894 0.19769832 -4.21878192 -0.19622241 0 0 Z M-6 8 C-6 8.66 -6 9.32 -6 10 C-4.02 9.67 -2.04 9.34 0 9 C0 8.67 0 8.34 0 8 C-1.98 8 -3.96 8 -6 8 Z " fill="#833B17" transform="translate(12,51)"/>
<path d="M0 0 C2.05078125 0.03255208 4.1015625 0.06510417 6.15234375 0.09765625 C6.44109375 0.73703125 6.72984375 1.37640625 7.02734375 2.03515625 C7.98057826 4.24971704 7.98057826 4.24971704 10.15234375 5.09765625 C9.16234375 5.09765625 8.17234375 5.09765625 7.15234375 5.09765625 C7.15234375 4.43765625 7.15234375 3.77765625 7.15234375 3.09765625 C5.17234375 3.42765625 3.19234375 3.75765625 1.15234375 4.09765625 C1.15234375 4.75765625 1.15234375 5.41765625 1.15234375 6.09765625 C2.14234375 6.42765625 3.13234375 6.75765625 4.15234375 7.09765625 C1.76010678 9.48989322 0.47474699 9.77351935 -2.84765625 10.09765625 C-3.83765625 9.43765625 -4.82765625 8.77765625 -5.84765625 8.09765625 C-5.18765625 7.76765625 -4.52765625 7.43765625 -3.84765625 7.09765625 C-4.83765625 6.43765625 -5.82765625 5.77765625 -6.84765625 5.09765625 C-5.52765625 4.76765625 -4.20765625 4.43765625 -2.84765625 4.09765625 C-2.84765625 3.10765625 -2.84765625 2.11765625 -2.84765625 1.09765625 C-1.84765625 0.09765625 -1.84765625 0.09765625 0 0 Z " fill="#F89945" transform="translate(15.84765625,5.90234375)"/>
<path d="M0 0 C1.65 0.33 3.3 0.66 5 1 C5 1.66 5 2.32 5 3 C5.99 3.66 6.98 4.32 8 5 C8.1875 7.625 8.1875 7.625 8 10 C7.34 10 6.68 10 6 10 C5.67 9.34 5.34 8.68 5 8 C4.67 8.33 4.34 8.66 4 9 C2.00041636 9.04080783 -0.00045254 9.04254356 -2 9 C-2.6875 6.75 -2.6875 6.75 -3 4 C-1.5625 1.6875 -1.5625 1.6875 0 0 Z " fill="#FEE8C8" transform="translate(49,39)"/>
<path d="M0 0 C2.64 0.33 5.28 0.66 8 1 C8 2.32 8 3.64 8 5 C7.01 5.33 6.02 5.66 5 6 C4.071875 6.5878125 4.071875 6.5878125 3.125 7.1875 C1 8 1 8 -1.5 7.25 C-2.325 6.8375 -3.15 6.425 -4 6 C-4.763125 5.62875 -5.52625 5.2575 -6.3125 4.875 C-7.1478125 4.441875 -7.1478125 4.441875 -8 4 C-7.67 3.01 -7.34 2.02 -7 1 C-6.67 1.33 -6.34 1.66 -6 2 C-4.00041636 2.04080783 -1.99954746 2.04254356 0 2 C0 1.34 0 0.68 0 0 Z M-1 8 C1 9 1 9 1 9 Z " fill="#C55316" transform="translate(10,15)"/>
<path d="M0 0 C0.74958984 0.00451172 1.49917969 0.00902344 2.27148438 0.01367188 C4.11852383 0.02543646 5.96552213 0.04337135 7.8125 0.0625 C8.1425 0.7225 8.4725 1.3825 8.8125 2.0625 C7.74128906 2.05089844 6.67007812 2.03929687 5.56640625 2.02734375 C4.16927257 2.01796701 2.77213701 2.00886669 1.375 2 C0.66794922 1.99162109 -0.03910156 1.98324219 -0.76757812 1.97460938 C-2.57443559 1.96596412 -4.38137603 2.01029989 -6.1875 2.0625 C-6.5175 2.3925 -6.8475 2.7225 -7.1875 3.0625 C-6.5275 3.3925 -5.8675 3.7225 -5.1875 4.0625 C-5.1875 5.0525 -5.1875 6.0425 -5.1875 7.0625 C-4.5275 7.3925 -3.8675 7.7225 -3.1875 8.0625 C-6.85812491 9.63562496 -8.63052674 10.20690048 -12.5625 9.1875 C-13.42875 8.81625 -14.295 8.445 -15.1875 8.0625 C-15.1875 7.7325 -15.1875 7.4025 -15.1875 7.0625 C-13.5375 7.0625 -11.8875 7.0625 -10.1875 7.0625 C-10.1875 6.4025 -10.1875 5.7425 -10.1875 5.0625 C-10.8475 4.7325 -11.5075 4.4025 -12.1875 4.0625 C-11.8575 3.0725 -11.5275 2.0825 -11.1875 1.0625 C-7.42449626 -0.19183458 -3.91539091 -0.04445422 0 0 Z " fill="#6D2E15" transform="translate(16.1875,34.9375)"/>
<path d="M0 0 C3.39537852 -0.14575327 6.78994902 -0.23421542 10.1875 -0.3125 C11.14720703 -0.35439453 12.10691406 -0.39628906 13.09570312 -0.43945312 C20.25294084 -0.56328077 20.25294084 -0.56328077 24.17578125 2.39453125 C26 5 26 5 26 7 C25.34 7 24.68 7 24 7 C24.33 8.98 24.66 10.96 25 13 C22.30569934 11.65284967 22.08067406 10.24709508 20.9375 7.5 C19.82211143 4.51978768 19.82211143 4.51978768 18 2 C14.76196361 1.92682404 11.53501583 2.00389112 8.296875 2.0625 C5.37205569 2.00705319 2.83428847 1.68193407 0 1 C0 0.67 0 0.34 0 0 Z " fill="#832F10" transform="translate(34,35)"/>
<path d="M0 0 C3.73487777 0.4979837 5.81237635 0.87491756 9 3 C8.34 4.32 7.68 5.64 7 7 C6.34 7 5.68 7 5 7 C5 7.66 5 8.32 5 9 C5.66 9.33 6.32 9.66 7 10 C3.37 9.67 -0.26 9.34 -4 9 C-2 8 0 7 2 6 C-0.475 5.01 -0.475 5.01 -3 4 C-3 3.67 -3 3.34 -3 3 C-2.01 2.67 -1.02 2.34 0 2 C0 1.34 0 0.68 0 0 Z " fill="#7F3112" transform="translate(37,7)"/>
<path d="M0 0 C0.66 0.33 1.32 0.66 2 1 C2 4.50935186 1.62457273 7.56484998 1 11 C-1.3125 11.625 -1.3125 11.625 -4 12 C-4.99 11.34 -5.98 10.68 -7 10 C-6.34 9.67 -5.68 9.34 -5 9 C-5.99 8.34 -6.98 7.68 -8 7 C-6.68 6.67 -5.36 6.34 -4 6 C-4 5.01 -4 4.02 -4 3 C-2 1.3125 -2 1.3125 0 0 Z " fill="#FD9835" transform="translate(49,4)"/>
<path d="M0 0 C1.14926266 0.95421808 2.29430541 1.91352045 3.4375 2.875 C4.07558594 3.40867188 4.71367187 3.94234375 5.37109375 4.4921875 C7.6009318 6.55625821 7.96207574 7.72188875 8.375 10.75 C7.85255529 15.27785417 6.19600222 16.80399778 3 20 C2.34 20 1.68 20 1 20 C1 20.66 1 21.32 1 22 C0.01 21.67 -0.98 21.34 -2 21 C0.34375 19.19335938 0.34375 19.19335938 2.6875 17.38671875 C4.34370205 15.95508863 4.34370205 15.95508863 4 13 C4.66 13 5.32 13 6 13 C4.83857315 8.64464931 3.92300495 6.35380297 0 4 C0.33 3.67 0.66 3.34 1 3 C0.34 2.34 -0.32 1.68 -1 1 C-0.67 0.67 -0.34 0.34 0 0 Z " fill="#FC9430" transform="translate(20,37)"/>
<path d="M0 0 C1.14926266 0.95421808 2.29430541 1.91352045 3.4375 2.875 C4.07558594 3.40867187 4.71367188 3.94234375 5.37109375 4.4921875 C7.6009318 6.55625821 7.96207574 7.72188875 8.375 10.75 C7.85255529 15.27785417 6.19600222 16.80399778 3 20 C2.34 20 1.68 20 1 20 C1 20.66 1 21.32 1 22 C0.01 21.67 -0.98 21.34 -2 21 C0.34375 19.19335938 0.34375 19.19335938 2.6875 17.38671875 C4.34370205 15.95508863 4.34370205 15.95508863 4 13 C4.66 13 5.32 13 6 13 C4.83857315 8.64464931 3.92300495 6.35380297 0 4 C0.33 3.67 0.66 3.34 1 3 C0.34 2.34 -0.32 1.68 -1 1 C-0.67 0.67 -0.34 0.34 0 0 Z " fill="#FC9430" transform="translate(53,4)"/>
<path d="M0 0 C1.93719378 -0.05406122 3.87481921 -0.09282025 5.8125 -0.125 C6.89144531 -0.14820313 7.97039063 -0.17140625 9.08203125 -0.1953125 C12 0 12 0 15 2 C17.554836 6.16343644 18.3477072 9.13209925 18 14 C17.34 14 16.68 14 16 14 C15.773125 12.948125 15.54625 11.89625 15.3125 10.8125 C14.10558183 6.7453511 12.54420674 4.48848558 9 2 C5.95135472 1.60101622 3.0542846 1.70056033 0 2 C0 1.34 0 0.68 0 0 Z " fill="#BB3103" transform="translate(13,5)"/>
<path d="M0 0 C4.49029126 -0.36407767 4.49029126 -0.36407767 6.75 1.25 C8.12041836 3.16858571 8.6018827 4.69091968 9 7 C7.68 6.34 6.36 5.68 5 5 C5.33 4.67 5.66 4.34 6 4 C3.62625139 3.66574265 3.62625139 3.66574265 1 4 C-1.40311451 6.23738248 -1.96341425 7.46340904 -2.1875 10.75 C-2.125625 11.4925 -2.06375 12.235 -2 13 C-3.32 12.67 -4.64 12.34 -6 12 C-6.33 10.68 -6.66 9.36 -7 8 C-6.38125 7.9175 -5.7625 7.835 -5.125 7.75 C-2.85214021 7.19418495 -2.85214021 7.19418495 -1.8125 5.125 C-1.16535941 3.43247845 -0.57301136 1.71903407 0 0 Z " fill="#E56B1D" transform="translate(47,36)"/>
<path d="M0 0 C2.56640625 0.171875 2.56640625 0.171875 5.50390625 2.421875 C7.56640625 5.171875 7.56640625 5.171875 7.37890625 7.484375 C7.11078125 8.04125 6.84265625 8.598125 6.56640625 9.171875 C6.13328125 8.3675 5.70015625 7.563125 5.25390625 6.734375 C3.76166623 3.89341146 3.76166623 3.89341146 0.56640625 3.171875 C-1.64146023 3.12646901 -3.85059576 3.13339137 -6.05859375 3.171875 C-11.62483261 3.21806785 -16.92396915 2.93182322 -22.43359375 2.171875 C-22.43359375 1.841875 -22.43359375 1.511875 -22.43359375 1.171875 C-19.392025 1.00323356 -16.35035922 0.83689747 -13.30859375 0.671875 C-12.45265625 0.62417969 -11.59671875 0.57648437 -10.71484375 0.52734375 C-7.14400717 0.33506793 -3.57153485 0.1787799 0 0 Z " fill="#4C2A1A" transform="translate(54.43359375,0.828125)"/>
<path d="M0 0 C2 2 2 2 2.5625 4.625 C1.71490821 9.71055072 -0.84818528 12.9763958 -5 16 C-8.12205041 16.64219391 -10.86628536 16.51162688 -14 16 C-14 15.01 -14 14.02 -14 13 C-11.33333333 13 -8.66666667 13 -6 13 C-6 12.34 -6 11.68 -6 11 C-4.35 10.34 -2.7 9.68 -1 9 C-0.67 6.03 -0.34 3.06 0 0 Z " fill="#FB922F" transform="translate(27,12)"/>
<path d="M0 0 C0.33 0.66 0.66 1.32 1 2 C1.99 2.33 2.98 2.66 4 3 C2.44616792 4.55383208 0.77276704 4.38172542 -1.375 4.625 C-2.56222656 4.76808594 -2.56222656 4.76808594 -3.7734375 4.9140625 C-6 5 -6 5 -9 4 C-9.6875 1.9375 -9.6875 1.9375 -10 0 C-6.42742531 -1.23666047 -3.64473199 -0.89093449 0 0 Z " fill="#FC9838" transform="translate(18,44)"/>
<path d="M0 0 C1.32 0 2.64 0 4 0 C4.33 1.32 4.66 2.64 5 4 C7.31 4.33 9.62 4.66 12 5 C11.67 5.66 11.34 6.32 11 7 C10.34 7 9.68 7 9 7 C9 7.66 9 8.32 9 9 C7.02 9 5.04 9 3 9 C3 8.34 3 7.68 3 7 C1.68 6.67 0.36 6.34 -1 6 C-0.34 5.34 0.32 4.68 1 4 C1.33 4.33 1.66 4.66 2 5 C2.33 3.68 2.66 2.36 3 1 C2.01 0.67 1.02 0.34 0 0 Z " fill="#823A17" transform="translate(1,7)"/>
<path d="M0 0 C0.66 0.66 1.32 1.32 2 2 C0.1875 4 0.1875 4 -2 6 C-2.99 6 -3.98 6 -5 6 C-5 5.01 -5 4.02 -5 3 C-6.65 3 -8.3 3 -10 3 C-6.70335635 -0.04305568 -4.44038228 -0.48265025 0 0 Z " fill="#DF5913" transform="translate(16,36)"/>
<path d="M0 0 C3.63 0 7.26 0 11 0 C10 4 10 4 7 6 C7 5.01 7 4.02 7 3 C4.69 3 2.38 3 0 3 C0 2.01 0 1.02 0 0 Z " fill="#D54C0D" transform="translate(36,36)"/>
<path d="M0 0 C-2.61514317 2.12038635 -5.19637616 4.13091744 -8 6 C-9.65 4.68 -11.3 3.36 -13 2 C-8.50343896 -0.24828052 -4.92127034 -0.16682272 0 0 Z " fill="#BD3103" transform="translate(51,3)"/>
<path d="M0 0 C2.01822917 0.06510417 4.03645833 0.13020833 6.0546875 0.1953125 C6.3434375 0.8346875 6.6321875 1.4740625 6.9296875 2.1328125 C7.88292201 4.34737329 7.88292201 4.34737329 10.0546875 5.1953125 C9.0646875 5.1953125 8.0746875 5.1953125 7.0546875 5.1953125 C7.0546875 4.5353125 7.0546875 3.8753125 7.0546875 3.1953125 C6.1265625 3.3809375 5.1984375 3.5665625 4.2421875 3.7578125 C0.78361609 4.23251838 -0.86892978 3.73350386 -3.9453125 2.1953125 C-1.9453125 0.1953125 -1.9453125 0.1953125 0 0 Z " fill="#F48C2D" transform="translate(15.9453125,5.8046875)"/>
<path d="M0 0 C1.32 0.66 2.64 1.32 4 2 C4 2.99 4 3.98 4 5 C-2.875 6 -2.875 6 -4 6 C-4.33 4.68 -4.66 3.36 -5 2 C-4.360625 1.855625 -3.72125 1.71125 -3.0625 1.5625 C-1.02454854 1.18992819 -1.02454854 1.18992819 0 0 Z " fill="#5E2E18" transform="translate(39,21)"/>
<path d="M0 0 C2.31 0 4.62 0 7 0 C7.33 1.32 7.66 2.64 8 4 C5.29120665 5.35439668 2.99066732 5.06501451 0 5 C0.66 3.68 1.32 2.36 2 1 C1.34 0.67 0.68 0.34 0 0 Z " fill="#8C2E0D" transform="translate(36,39)"/>
<path d="M0 0 C0.33 0.66 0.66 1.32 1 2 C0.22265625 3.7265625 0.22265625 3.7265625 -0.9375 5.625 C-1.618125 6.73875 -2.29875 7.8525 -3 9 C-6.3 9 -9.6 9 -13 9 C-12.67 8.34 -12.34 7.68 -12 7 C-9.03 7.495 -9.03 7.495 -6 8 C-6 7.34 -6 6.68 -6 6 C-4.37550757 4.29220027 -2.70779973 2.62449243 -1 1 C-0.67 0.67 -0.34 0.34 0 0 Z " fill="#C33202" transform="translate(27,51)"/>
<path d="M0 0 C2.0625 0.4375 2.0625 0.4375 4 1 C4 1.99 4 2.98 4 4 C5.32 3.67 6.64 3.34 8 3 C7.01 4.485 7.01 4.485 6 6 C2.875 6.1875 2.875 6.1875 0 6 C-0.38218767 4.34385343 -0.71395102 2.67542976 -1 1 C-0.67 0.67 -0.34 0.34 0 0 Z " fill="#FE9832" transform="translate(47,42)"/>
<path d="M0 0 C2.97 0.495 2.97 0.495 6 1 C5.67 2.32 5.34 3.64 5 5 C3.1875 5.625 3.1875 5.625 1 6 C0.01 5.34 -0.98 4.68 -2 4 C-1.34 2.68 -0.68 1.36 0 0 Z " fill="#853E18" transform="translate(34,51)"/>
<path d="M0 0 C3.73487777 0.4979837 5.81237635 0.87491756 9 3 C7.02 3.66 5.04 4.32 3 5 C1.5 3.625 1.5 3.625 0 2 C0 1.34 0 0.68 0 0 Z " fill="#8C2E0D" transform="translate(5,7)"/>
<path d="M0 0 C-1 2 -1 2 -3.1875 2.75 C-6.58439429 3.05194616 -8.85586991 2.24302818 -12 1 C-12 0.67 -12 0.34 -12 0 C-7.74433453 -1.16063604 -4.3164922 -0.76173392 0 0 Z " fill="#812D0F" transform="translate(13,42)"/>
<path d="M0 0 C1.98 0.495 1.98 0.495 4 1 C4.33 2.65 4.66 4.3 5 6 C2.03 5.505 2.03 5.505 -1 5 C-0.67 3.35 -0.34 1.7 0 0 Z " fill="#FC9838" transform="translate(46,16)"/>
<path d="M0 0 C0.66 0.33 1.32 0.66 2 1 C0.1875 3 0.1875 3 -2 5 C-2.99 5 -3.98 5 -5 5 C-5 4.01 -5 3.02 -5 2 C-2.625 0.9375 -2.625 0.9375 0 0 Z " fill="#FE9832" transform="translate(16,37)"/>
<path d="M0 0 C0.99 0.33 1.98 0.66 3 1 C3 1.66 3 2.32 3 3 C2.01 2.67 1.02 2.34 0 2 C0 1.34 0 0.68 0 0 Z " fill="#AB5A21" transform="translate(35,58)"/>
<path d="M0 0 C1.32 0.33 2.64 0.66 4 1 C2.68 1 1.36 1 0 1 C0 0.67 0 0.34 0 0 Z " fill="#8C2E0D" transform="translate(1,57)"/>
<path d="M0 0 C0.66 0.33 1.32 0.66 2 1 C1.67 1.66 1.34 2.32 1 3 C0.34 2.34 -0.32 1.68 -1 1 C-0.67 0.67 -0.34 0.34 0 0 Z " fill="#894219" transform="translate(1,38)"/>
<path d="M0 0 C0.66 0.66 1.32 1.32 2 2 C1.34 2 0.68 2 0 2 C0 1.34 0 0.68 0 0 Z " fill="#DD5511" transform="translate(32,58)"/>
<path d="M0 0 C0.66 0 1.32 0 2 0 C1.67 0.66 1.34 1.32 1 2 C0.67 1.34 0.34 0.68 0 0 Z " fill="#EE7621" transform="translate(33,41)"/>
<path d="M0 0 C3 1 3 1 3 1 Z " fill="#884F22" transform="translate(2,35)"/>
<path d="M0 0 C2 1 2 1 2 1 Z " fill="#4C2A1A" transform="translate(33,61)"/>
<path d="M0 0 C2 1 2 1 2 1 Z " fill="#4D2A1A" transform="translate(33,57)"/>
<path d="M0 0 C2 1 2 1 2 1 Z " fill="#4D2A1A" transform="translate(4,50)"/>
<path d="M0 0 C2 1 2 1 2 1 Z " fill="#4D2A1A" transform="translate(33,39)"/>
<path d="" fill="#A66126" transform="translate(0,0)"/>
<path d="" fill="#FF9933" transform="translate(0,0)"/>
<path d="" fill="#FF9933" transform="translate(0,0)"/>
<path d="" fill="#FF9933" transform="translate(0,0)"/>
<path d="" fill="#CC3200" transform="translate(0,0)"/>
<path d="" fill="#CD3300" transform="translate(0,0)"/>
<path d="" fill="#FF9932" transform="translate(0,0)"/>
<path d="" fill="#CD3301" transform="translate(0,0)"/>
<path d="" fill="#FF9833" transform="translate(0,0)"/>
<path d="" fill="#4D2A1A" transform="translate(0,0)"/>
<path d="" fill="#FF9933" transform="translate(0,0)"/>
<path d="" fill="#FF9933" transform="translate(0,0)"/>
<path d="" fill="#FF9933" transform="translate(0,0)"/>
<path d="" fill="#CD3300" transform="translate(0,0)"/>
<path d="" fill="#CC3300" transform="translate(0,0)"/>
<path d="" fill="#FF9933" transform="translate(0,0)"/>
<path d="" fill="#CC3300" transform="translate(0,0)"/>
<path d="" fill="#FF9933" transform="translate(0,0)"/>
<path d="" fill="#FF9932" transform="translate(0,0)"/>
<path d="" fill="#CC3300" transform="translate(0,0)"/>
</svg>
